<svg width="37" height="36" viewBox="0 0 37 36" fill="none" xmlns="http://www.w3.org/2000/svg">
<g clip-path="url(#clip0_299_503)">
<path d="M18.1472 2.05237C13.7449 2.05237 9.75818 3.838 6.8717 6.72668C3.98413 9.60876 2.19959 13.5977 2.19959 18.0022C2.19959 22.4034 3.98413 26.3896 6.8717 29.2727C9.75818 32.1576 13.7449 33.9465 18.1472 33.9465C22.5506 33.9465 26.5395 32.1576 29.4216 29.2727C32.3081 26.3896 34.0888 22.4034 34.0888 18.0022C34.0888 13.5977 32.3081 9.60876 29.4216 6.72668C26.5395 3.838 22.5506 2.05237 18.1472 2.05237ZM18.1472 0.119986C28.0207 0.119986 36.0261 8.1265 36.0261 18.0022C36.0261 27.8746 28.0207 35.88 18.1472 35.88C8.27482 35.88 0.266113 27.8746 0.266113 18.0022C0.266113 8.1265 8.27482 0.119986 18.1472 0.119986Z" fill="#98A4AE"/>
<path d="M9.69082 17.8565C9.69082 16.8145 8.99943 16.2226 8.0206 16.2226H7.42154V19.4916H8.00356C8.91369 19.4916 9.69082 18.9969 9.69082 17.8565ZM20.3469 19.0326L15.9337 22.5077L11.9002 19.3322C11.3182 20.7303 9.91176 21.7015 8.2921 21.7015H4.84009V14.0115H8.2921C10.1019 14.0115 11.4061 15.1624 11.8991 16.3885L15.9337 13.2163L17.428 14.3924L13.7304 17.2987L14.441 17.8549L18.1376 14.9502L19.6341 16.1231L15.937 19.0326L16.6465 19.5899L20.3469 16.6798V14.0115H23.0295V19.4569H25.7055V21.7108H20.3469V19.0326ZM29.1036 19.458H31.7785V21.7108H26.4183V14.0115H29.1036V19.458Z" fill="#98A4AE"/>
</g>
<defs>
<clipPath id="clip0_299_503">
<rect width="36" height="36" fill="white" transform="translate(0.145996)"/>
</clipPath>
</defs>
</svg>
