<svg width="140" height="18" viewBox="0 0 140 18" fill="none" xmlns="http://www.w3.org/2000/svg">
<g clip-path="url(#clip0_299_501)">
<path d="M60.29 11.712H69.434L64.604 3.912L55.724 18H51.686L62.486 1.098C62.7214 0.760722 63.0342 0.484781 63.3983 0.293289C63.7623 0.101798 64.1669 0.000333305 64.5782 -0.00260462C64.9895 -0.00554254 65.3955 0.0901319 65.7623 0.276404C66.129 0.462675 66.4457 0.734119 66.686 1.068L77.516 18H73.478L71.576 14.85H62.324L60.308 11.712M102.266 14.85V0.167996H98.834V16.296C98.8333 16.5201 98.8782 16.742 98.9659 16.9483C99.0535 17.1546 99.1822 17.3409 99.344 17.496C99.5064 17.6622 99.7006 17.794 99.915 17.8837C100.129 17.9734 100.36 18.0191 100.592 18.018H116.192L118.226 14.868H102.248M45.524 12.228C47.1232 12.228 48.657 11.5927 49.7878 10.4618C50.9187 9.331 51.554 7.79725 51.554 6.198C51.554 4.59874 50.9187 3.06499 49.7878 1.93414C48.657 0.803297 47.1232 0.167996 45.524 0.167996H30.524V18H33.95V3.324H45.314C46.0794 3.324 46.8134 3.62806 47.3547 4.16929C47.8959 4.71052 48.2 5.44458 48.2 6.21C48.2 6.97541 47.8959 7.70948 47.3547 8.25071C46.8134 8.79194 46.0794 9.09599 45.314 9.09599H35.648L45.884 18H50.858L43.982 12.228H45.524ZM9.45196 18H19.814C22.1378 17.9397 24.3462 16.9742 25.9685 15.3093C27.5908 13.6443 28.4987 11.4116 28.4987 9.087C28.4987 6.76237 27.5908 4.52967 25.9685 2.86474C24.3462 1.1998 22.1378 0.234294 19.814 0.173996H9.45196C8.26203 0.14312 7.07796 0.350825 5.96959 0.784863C4.86121 1.2189 3.85097 1.87049 2.99843 2.70119C2.14589 3.53189 1.46832 4.52489 1.00568 5.62164C0.543037 6.71838 0.304687 7.89666 0.304688 9.087C0.304687 10.2773 0.543037 11.4556 1.00568 12.5524C1.46832 13.6491 2.14589 14.6421 2.99843 15.4728C3.85097 16.3035 4.86121 16.9551 5.96959 17.3891C7.07796 17.8232 8.26203 18.0309 9.45196 18ZM19.58 14.862H9.67996C8.18213 14.8137 6.76181 14.1847 5.71935 13.1081C4.67689 12.0315 4.09403 10.5916 4.09403 9.09299C4.09403 7.59438 4.67689 6.15452 5.71935 5.0779C6.76181 4.00128 8.18213 3.37231 9.67996 3.324H19.58C20.3532 3.29906 21.1236 3.42982 21.8453 3.70851C22.567 3.98721 23.2253 4.40815 23.7811 4.94631C24.3369 5.48447 24.7789 6.12888 25.0807 6.84123C25.3825 7.55359 25.538 8.31934 25.538 9.09299C25.538 9.86665 25.3825 10.6324 25.0807 11.3448C24.7789 12.0571 24.3369 12.7015 23.7811 13.2397C23.2253 13.7778 22.567 14.1988 21.8453 14.4775C21.1236 14.7562 20.3532 14.8869 19.58 14.862ZM84.674 18H95.252L97.256 14.862H84.908C84.1347 14.8869 83.3643 14.7562 82.6426 14.4775C81.9209 14.1988 81.2626 13.7778 80.7068 13.2397C80.151 12.7015 79.709 12.0571 79.4072 11.3448C79.1054 10.6324 78.9499 9.86665 78.9499 9.09299C78.9499 8.31934 79.1054 7.55359 79.4072 6.84123C79.709 6.12888 80.151 5.48447 80.7068 4.94631C81.2626 4.40815 81.9209 3.98721 82.6426 3.70851C83.3643 3.42982 84.1347 3.29906 84.908 3.324H94.958L96.986 0.173996H84.674C83.484 0.14312 82.3 0.350825 81.1916 0.784863C80.0832 1.2189 79.073 1.87049 78.2204 2.70119C77.3679 3.53189 76.6903 4.52489 76.2277 5.62164C75.765 6.71838 75.5267 7.89666 75.5267 9.087C75.5267 10.2773 75.765 11.4556 76.2277 12.5524C76.6903 13.6491 77.3679 14.6421 78.2204 15.4728C79.073 16.3035 80.0832 16.9551 81.1916 17.3891C82.3 17.8232 83.484 18.0309 84.674 18ZM126.596 14.862C125.339 14.8625 124.116 14.4525 123.113 13.6944C122.11 12.9364 121.382 11.8716 121.04 10.662H135.692L137.708 7.518H121.04C121.381 6.30788 122.109 5.24257 123.112 4.48434C124.115 3.72611 125.339 3.31653 126.596 3.318H136.652L138.662 0.167996H126.362C124.038 0.228294 121.83 1.1938 120.207 2.85874C118.585 4.52367 117.677 6.75637 117.677 9.081C117.677 11.4056 118.585 13.6383 120.207 15.3033C121.83 16.9682 124.038 17.9337 126.362 17.994H136.94L138.95 14.856H126.59" fill="#98A4AE"/>
</g>
<defs>
<clipPath id="clip0_299_501">
<rect width="138.6" height="18" fill="white" transform="translate(0.535889)"/>
</clipPath>
</defs>
</svg>
