<svg width="81" height="32" viewBox="0 0 81 32" fill="none" xmlns="http://www.w3.org/2000/svg">
<g clip-path="url(#clip0_299_518)">
<path fill-rule="evenodd" clip-rule="evenodd" d="M1.44447 3.74842L1.44385 3.71059V0.681958H4.46608V22.8956L4.46733 22.9648V25.962H1.44385V22.9334L1.44447 22.8956V3.74842Z" fill="#98A4AE"/>
<path fill-rule="evenodd" clip-rule="evenodd" d="M32.1752 16.7556C32.2528 21.3501 35.0955 25.0245 38.5249 24.9629C41.9536 24.9014 44.67 21.127 44.5924 16.5324C44.5142 11.9372 41.6715 8.26283 38.2421 8.32503C34.8133 8.38659 32.097 12.161 32.1752 16.7556ZM57.1987 11.2004C57.2776 11.3755 57.0904 10.9388 57.0904 10.9388L57.1987 11.2004ZM59.2585 30.2219C59.397 29.9846 59.59 29.6216 59.8196 29.1683L59.2585 30.2219ZM59.4361 9.61524C59.4726 9.7172 59.515 9.82364 59.5624 9.93586L60.5801 12.4425L59.4361 9.61524ZM46.7727 22.2338C48.6406 23.9395 50.3226 24.8212 52.4734 24.8212C54.6748 24.8379 56.6319 23.7548 56.6319 21.6701C56.6319 19.9304 55.0987 18.9127 52.3592 17.7476C50.0379 16.737 48.3104 16.0284 47.4075 14.5657C47.5178 15.2012 47.5755 15.8578 47.5755 16.5298C47.5755 22.1722 43.5074 26.7469 38.4889 26.7469C33.4705 26.7469 29.4024 22.1722 29.4024 16.5298C29.4024 13.128 30.8812 10.1148 33.1544 8.2577H27.0054V22.8956L27.0061 22.9539V25.962H24.275V23.052C24.2769 23.0007 24.2775 22.9488 24.2775 22.8956V8.2577H21.8696V6.41539H24.3128C24.6283 2.69869 26.9169 0.596665 30.0854 0.596665C32.1399 0.596665 33.2679 0.812129 33.9194 1.11544V3.63492C33.9091 3.82281 33.9091 3.93759 33.9091 3.93759C33.8809 3.93438 33.8136 3.9331 33.8136 3.9331C32.8248 3.01547 31.8494 2.33253 29.5711 2.3351C27.7563 2.3351 26.5559 3.81832 26.9753 6.41539H37.1969C37.6194 6.34806 38.0503 6.31278 38.4889 6.31278C42.1293 6.31278 45.2702 8.72004 46.7201 12.1969C46.7066 12.0039 46.7002 11.8025 46.7002 11.5922C46.7002 7.96465 50.1905 6.4218 53.8162 6.4295C53.9547 6.42886 54.0906 6.42949 54.224 6.4327C55.5001 6.41218 57.3181 6.83092 58.4281 7.12461L60.5801 12.4425L63.6555 19.9888L64.0165 21.2007L64.4186 19.9888L68.3078 10.3027C69.0254 7.63569 71.8655 6.48143 75.0025 6.48784C76.562 6.48079 77.7137 6.66996 79.095 7.1586V10.0878C77.3944 8.84445 76.1766 8.12175 74.2471 8.12175C72.551 8.12175 70.5124 8.87716 70.5124 11.3883C70.4797 13.2755 71.6051 13.6205 74.9076 15.2691C77.622 16.4548 80.1261 17.7636 80.1408 20.7948C80.1408 25.8485 75.1916 26.7238 72.7824 26.7315C70.6317 26.7315 68.6605 26.1974 67.5639 25.2797V21.9433L67.7403 22.0901C69.6968 23.928 71.4256 24.8802 73.6597 24.8802C75.8618 24.8969 77.8182 23.8132 77.8182 21.7285C77.8182 19.9888 76.285 18.9711 73.5455 17.8059C70.9273 16.6658 69.2094 15.9104 68.5072 14.0219C67.4395 16.6414 62.4731 28.8092 61.3041 31.4101H58.6262L59.8382 29.1336C60.5095 27.8037 61.4862 25.7171 62.3538 23.7208L57.1987 11.2004C57.1641 11.1241 57.0795 10.9317 56.907 10.5373C56.5114 9.63062 56.1433 8.79315 55.0301 8.37121C54.4337 8.16921 53.7989 8.0634 53.0608 8.0634C51.3647 8.0634 49.1953 8.8188 49.1953 11.3299C49.1626 13.2171 50.4182 13.5621 53.7213 15.2102C56.4357 16.3965 58.9398 17.7053 58.9545 20.7365C58.9545 25.7902 54.0047 26.6648 51.5955 26.6732C49.6833 26.6732 47.9122 26.2506 46.7727 25.5119V22.2338Z" fill="#98A4AE"/>
<path fill-rule="evenodd" clip-rule="evenodd" d="M10.1058 6.60392L10.1391 8.81496L10.1372 8.96372L10.1667 8.96308C10.202 8.87074 10.2494 8.79251 10.2943 8.73415C11.4043 7.53694 12.8035 6.34741 16.1291 6.34741C19.3122 6.34741 21.3726 9.06825 21.4553 10.781L21.4585 22.8956V22.9558V25.962H18.7306V22.3499L18.73 12.0366C18.73 9.90123 16.8671 8.3571 14.5868 8.3571C12.6913 8.3571 10.2584 10.0731 10.1776 11.8102V22.8988L10.1789 22.9802V25.9646H7.44971V9.14968L7.45037 6.60392H10.1058Z" fill="#98A4AE"/>
</g>
<defs>
<clipPath id="clip0_299_518">
<rect width="80" height="32" fill="white" transform="translate(0.747559)"/>
</clipPath>
</defs>
</svg>
