<svg width="21" height="14" viewBox="0 0 21 14" fill="none" xmlns="http://www.w3.org/2000/svg">
<path d="M2.64996 14L5.33329 9.33333C4.04996 9.33333 2.95135 8.87639 2.03746 7.9625C1.12357 7.04861 0.666626 5.95 0.666626 4.66667C0.666626 3.38333 1.12357 2.28472 2.03746 1.37083C2.95135 0.456945 4.04996 0 5.33329 0C6.61663 0 7.71524 0.456945 8.62913 1.37083C9.54301 2.28472 9.99996 3.38333 9.99996 4.66667C9.99996 5.11389 9.94668 5.52728 9.84013 5.90683C9.73357 6.28639 9.57296 6.65078 9.35829 7L5.33329 14H2.64996ZM13.15 14L15.8333 9.33333C14.55 9.33333 13.4513 8.87639 12.5375 7.9625C11.6236 7.04861 11.1666 5.95 11.1666 4.66667C11.1666 3.38333 11.6236 2.28472 12.5375 1.37083C13.4513 0.456945 14.55 0 15.8333 0C17.1166 0 18.2152 0.456945 19.1291 1.37083C20.043 2.28472 20.5 3.38333 20.5 4.66667C20.5 5.11389 20.4467 5.52728 20.3401 5.90683C20.2336 6.28639 20.073 6.65078 19.8583 7L15.8333 14H13.15Z" fill="white"/>
</svg>
