<svg width="49" height="32" viewBox="0 0 49 32" fill="none" xmlns="http://www.w3.org/2000/svg">
<g clip-path="url(#clip0_299_497)">
<path d="M14.297 13.5732V21.4093H11.8026V11.5596L16.9524 11.5648C19.1398 11.5648 19.8849 13.1073 19.8849 14.5083V21.4094H17.3949V14.5213C17.3949 13.9343 17.0911 13.5732 16.3583 13.5732L14.297 13.5732ZM31.2591 13.4555C30.4065 13.4555 29.7466 13.8938 29.471 14.4888C29.3077 14.8461 29.2515 15.1199 29.2323 15.5573H33.07C33.0207 14.4888 32.5362 13.4555 31.2591 13.4555ZM29.2323 17.255C29.2323 18.5309 30.0255 19.47 31.4416 19.47C32.5434 19.47 33.091 19.1646 33.728 18.5309L35.2687 20.0019C34.2822 20.9758 33.2471 21.5673 31.4233 21.5673C29.0354 21.5673 26.7502 20.2652 26.7502 16.4705C26.7502 13.2282 28.7454 11.3927 31.3671 11.3927C34.0246 11.3927 35.5599 13.5417 35.5599 16.3565V17.255H29.2323ZM24.6445 21.397C22.6123 21.397 21.7501 19.9824 21.7501 18.5852V8.87604H24.2407V11.5596H26.1182V13.5732H24.2407V18.4291C24.2407 19.0013 24.5109 19.319 25.105 19.319H26.1182V21.397H24.6445ZM9.58308 10.1985H7.0715V7.81268H9.58308V10.1985ZM9.5894 21.5129C7.70856 21.3322 7.06881 20.1914 7.06881 18.8749L7.07153 11.5596H9.58942L9.5894 21.5129ZM39.524 21.3025C37.647 21.1214 37.0103 19.9824 37.0103 18.6678V7.47314H39.524V21.3025ZM48.3115 9.09099C46.0335 -2.0154 24.4743 -2.7185 10.578 5.74121V6.67517C24.4602 -0.459091 44.1484 -0.417062 45.9422 9.8124C46.5423 13.1949 44.6363 16.7215 41.2322 18.7485V21.4006C45.3295 19.9017 49.5316 15.0409 48.3115 9.09099ZM23.0513 28.5229C13.4606 29.4094 3.46655 28.0173 2.06816 20.5231C1.38367 16.8287 3.06667 12.9124 5.29935 10.4798V9.17895C1.2801 12.7035 -0.901251 17.1655 0.354541 22.4379C1.95738 29.1987 10.5348 33.03 23.6268 31.7577C28.8066 31.2521 35.5864 29.5865 40.2997 26.9996V23.3244C36.0229 25.8711 28.9456 27.9771 23.0513 28.5229Z" fill="#98A4AE"/>
<path d="M42.4297 8.21654C42.4297 8.09465 42.3586 8.05593 42.1959 8.05593H42.0389V8.40087C42.0617 8.40087 42.1758 8.40507 42.1959 8.40507C42.3586 8.40507 42.4297 8.35074 42.4297 8.23665V8.21654ZM42.6747 9.07185H42.4886C42.4718 9.07185 42.4571 9.06133 42.4499 9.04723L42.1959 8.61673C42.1914 8.60803 42.1694 8.59751 42.1607 8.59751H42.0467V9.02441C42.0467 9.04723 42.031 9.07185 42.001 9.07185H41.8326C41.8116 9.07185 41.7906 9.04723 41.7906 9.02441V7.94455C41.7906 7.8821 41.8149 7.85599 41.8677 7.84788C41.9272 7.84008 42.0887 7.83467 42.1758 7.83467C42.485 7.83467 42.672 7.92594 42.672 8.21654V8.23665C42.672 8.41648 42.5825 8.51134 42.4438 8.55787L42.7071 9.00309C42.7088 9.0121 42.7149 9.02442 42.7149 9.03491C42.7149 9.05233 42.7044 9.07185 42.6747 9.07185ZM42.2328 7.63982C41.7747 7.63982 41.4042 8.01809 41.4042 8.47352C41.4042 8.92954 41.7747 9.3018 42.2328 9.3018C42.6885 9.3018 43.0626 8.92954 43.0626 8.47352C43.0626 8.01809 42.6885 7.63982 42.2328 7.63982ZM42.2328 9.47353C41.6762 9.47353 41.2322 9.02441 41.2322 8.47352C41.2322 7.92353 41.6762 7.47321 42.2328 7.47321C42.7834 7.47321 43.2358 7.92353 43.2358 8.47352C43.2358 9.02441 42.7834 9.47353 42.2328 9.47353Z" fill="#98A4AE"/>
</g>
<defs>
<clipPath id="clip0_299_497">
<rect width="48.526" height="32" fill="white"/>
</clipPath>
</defs>
</svg>
