<svg width="20" height="20" viewBox="0 0 20 20" fill="none" xmlns="http://www.w3.org/2000/svg">
<path fill-rule="evenodd" clip-rule="evenodd" d="M6.31794 6.93167V15.8333H3.5535V6.93167H6.31794ZM13.3552 6.70778C16.1518 6.70778 16.6668 8.55056 16.6668 10.9428V15.8328L13.9052 15.8333L13.905 11.3689C13.901 10.3586 13.825 9.14222 12.4679 9.14222C11.0307 9.14222 10.8107 10.2644 10.8107 11.425V15.8328H8.04961V6.93111H10.7013V8.145H10.7402C11.1085 7.44555 12.0107 6.70778 13.3552 6.70778ZM4.93461 2.5C5.81794 2.5 6.53516 3.21722 6.53572 4.10111C6.53572 4.985 5.8185 5.71722 4.93461 5.71722C4.05072 5.71722 3.3335 4.985 3.3335 4.10111C3.3335 3.21722 4.05072 2.5 4.93461 2.5Z" fill="#5D7287"/>
</svg>
