<svg width="20" height="20" viewBox="0 0 20 20" fill="none" xmlns="http://www.w3.org/2000/svg">
<path fill-rule="evenodd" clip-rule="evenodd" d="M15.8695 4.51074C16.512 4.6961 17.0186 5.23868 17.1916 5.92703C17.5129 7.18432 17.5006 9.80507 17.5006 9.80507C17.5006 9.80507 17.5006 12.4125 17.1917 13.6699C17.0186 14.3581 16.5121 14.9008 15.8695 15.086C14.6956 15.417 10.0003 15.417 10.0003 15.417C10.0003 15.417 5.31719 15.417 4.13107 15.0729C3.48846 14.8876 2.98193 14.3449 2.80889 13.6566C2.5 12.4125 2.5 9.79183 2.5 9.79183C2.5 9.79183 2.5 7.18432 2.80889 5.92703C2.98181 5.23881 3.50082 4.68286 4.13096 4.49762C5.30483 4.16663 10.0002 4.16663 10.0002 4.16663C10.0002 4.16663 14.6956 4.16663 15.8695 4.51074ZM12.5004 9.79182L8.33354 12.2026V7.38102L12.5004 9.79182Z" fill="#5D7287"/>
</svg>
