<svg width="131" height="20" viewBox="0 0 131 20" fill="none" xmlns="http://www.w3.org/2000/svg">
<g clip-path="url(#clip0_299_509)">
<mask id="mask0_299_509" style="mask-type:luminance" maskUnits="userSpaceOnUse" x="-10" y="-11" width="151" height="42">
<path d="M-9.84497 -10.0027H140.747V30.0004H-9.84497V-10.0027Z" fill="white"/>
</mask>
<g mask="url(#mask0_299_509)">
<path d="M124.134 8.78422V11.5068H126.047V14.208C126.053 14.4494 126.04 14.7097 125.999 14.918C125.923 15.4219 125.444 16.2798 124.086 16.2798C122.736 16.2798 122.266 15.4219 122.184 14.918C122.15 14.7097 122.135 14.4494 122.135 14.208V5.67621C122.135 5.37442 122.156 5.0441 122.22 4.79409C122.312 4.33937 122.715 3.44264 124.076 3.44264C125.504 3.44264 125.86 4.38803 125.942 4.79409C125.995 5.06304 125.999 5.51417 125.999 5.51417V6.55017H130.7V5.93772C130.7 5.93772 130.721 5.29867 130.664 4.70229C130.311 1.20044 127.426 0.0925241 124.117 0.0925241C120.803 0.0925241 117.976 1.21075 117.564 4.70229C117.527 5.02157 117.47 5.5959 117.47 5.93772V13.7861C117.47 14.128 117.481 14.3926 117.544 15.0173C117.851 18.4227 120.803 19.6299 124.104 19.6299C127.426 19.6299 130.357 18.4227 130.669 15.0173C130.724 14.3926 130.73 14.128 130.737 13.7861V8.78422H124.134ZM91.7174 0.594706H86.9962V14.4048C87.0036 14.6455 86.9962 14.9159 86.9547 15.1141C86.8562 15.5777 86.4633 16.4699 85.1608 16.4699C83.875 16.4699 83.4718 15.5777 83.3807 15.1141C83.3335 14.9159 83.3275 14.6455 83.3335 14.4048V0.594706H78.6137V13.9762C78.6077 14.3212 78.6348 15.0259 78.6552 15.2105C78.981 18.6974 81.7292 19.8296 85.1608 19.8296C88.5991 19.8296 91.3457 18.6974 91.6774 15.2105C91.7035 15.0259 91.7378 14.3212 91.7174 13.9762V0.594706ZM48.3381 0.594706L45.983 15.187L43.6293 0.594706H36.0137L35.6098 19.2624H40.2754L40.4017 1.98116L43.6118 19.2624H48.3455L51.5585 1.98116L51.6853 19.2624H56.3627L55.9451 0.594706H48.3381ZM20.1414 0.594706L16.6834 19.2624H21.7261L24.3319 1.98116L26.8752 19.2624H31.8828L28.4392 0.594706H20.1414ZM108.217 15.6244L103.821 0.594706H96.8936V19.0678H101.476L101.21 3.55722L105.931 19.0678H112.575V0.594706H107.963L108.217 15.6244ZM65.8284 5.45304C65.7454 5.08438 65.7694 4.6927 65.8123 4.48799C65.9458 3.89041 66.3473 3.23865 67.5041 3.23865C68.5823 3.23865 69.2144 3.91078 69.2144 4.91946V6.06093H73.8168V4.75981C73.8168 0.737569 70.2106 0.105708 67.5998 0.105708C64.3115 0.105708 61.6261 1.18965 61.1357 4.21616C61.006 5.03979 60.9739 5.77089 61.1803 6.70382C61.9799 10.4775 68.5495 11.5722 69.503 13.9587C69.6713 14.4108 69.6231 14.9873 69.5373 15.327C69.3945 15.948 68.9766 16.5727 67.7381 16.5727C66.5765 16.5727 65.8773 15.9049 65.8773 14.8984L65.8758 13.1068H60.9221V14.5309C60.9221 18.6574 64.1543 19.9024 67.6355 19.9024C70.9696 19.9024 73.7233 18.7631 74.1651 15.6748C74.3758 14.0791 74.2168 13.0397 74.1322 12.6483C73.3604 8.77775 66.3584 7.6135 65.8284 5.45304ZM5.11764 5.40726C5.02728 5.03092 5.04837 4.63373 5.09871 4.42663C5.22623 3.83192 5.63013 3.16865 6.80732 3.16865C7.89917 3.16865 8.54206 3.84726 8.54206 4.86409V6.01946H13.1983V4.70804C13.1983 0.647202 9.53708 -2.32129e-06 6.89769 -2.32129e-06C3.58186 -2.32129e-06 0.872478 1.10072 0.376769 4.14905C0.241096 4.98586 0.217837 5.72199 0.413915 6.66523C1.2222 10.4818 7.85674 11.5854 8.82204 14.0004C9.00277 14.4494 8.94812 15.0259 8.85847 15.3787C8.7053 16.0063 8.28414 16.6398 7.03528 16.6398C5.86912 16.6398 5.17158 15.9605 5.17158 14.9401L5.16511 13.1437H0.155762V14.5712C0.155762 18.7449 3.43372 20 6.94203 20C10.3149 20 13.0847 18.8506 13.5365 15.7265C13.7612 14.1162 13.5926 13.0682 13.5169 12.6708C12.729 8.75282 5.64907 7.5924 5.11764 5.40726Z" fill="#98A4AE"/>
</g>
</g>
<defs>
<clipPath id="clip0_299_509">
<rect width="130.582" height="20" fill="white" transform="translate(0.155762)"/>
</clipPath>
</defs>
</svg>
