<svg width="22" height="22" viewBox="0 0 22 22" fill="none" xmlns="http://www.w3.org/2000/svg">
<g clip-path="url(#clip0_299_1033)">
<path d="M22 11C22 4.92422 17.0758 0 11 0C4.92422 0 0 4.92422 0 11C0 16.1562 3.55352 20.4875 8.34453 21.6777V14.3602H6.07578V11H8.34453V9.55195C8.34453 5.80938 10.0375 4.07344 13.7156 4.07344C14.4117 4.07344 15.6148 4.21094 16.109 4.34844V7.39062C15.8512 7.36484 15.4 7.34766 14.8371 7.34766C13.0324 7.34766 12.3363 8.03086 12.3363 9.80547V11H15.9285L15.3098 14.3602H12.332V21.9184C17.7805 21.2609 22 16.6246 22 11Z" fill="white"/>
</g>
<defs>
<clipPath id="clip0_299_1033">
<rect width="22" height="22" fill="white"/>
</clipPath>
</defs>
</svg>
