<svg width="40" height="40" viewBox="0 0 40 40" fill="none" xmlns="http://www.w3.org/2000/svg">
<path fill-rule="evenodd" clip-rule="evenodd" d="M0.380859 17.5487C0.380859 17.7684 0.445547 17.9134 0.481797 18.0544C0.718047 18.9709 1.22586 19.7575 1.82836 20.475C2.68648 21.4975 3.73742 22.3206 4.81398 23.0947C5.74773 23.7659 6.70055 24.4222 7.63805 25.0884C7.79898 25.2028 7.95117 25.3344 8.12586 25.4747C7.97555 25.5559 7.85055 25.6275 7.72055 25.6934C6.48336 26.3209 5.29305 27.0244 4.19586 27.8766C3.53461 28.3903 2.89523 28.9362 2.44367 29.6497C1.71711 30.7972 1.45992 32.0197 2.00148 33.325C2.15961 33.7062 2.40086 34.0356 2.74117 34.2791C2.85148 34.3578 2.97523 34.4359 3.1043 34.4666C3.43492 34.5444 3.7718 34.5953 4.10648 34.6569L5.0543 34.6563C6.10242 34.5628 7.05648 34.2037 7.91867 33.6087C9.26617 32.6787 10.174 31.4319 10.5643 29.8316C10.848 28.6684 10.8596 27.5041 10.5252 26.3462C10.4931 26.239 10.4562 26.1333 10.4146 26.0294C10.374 25.9253 10.3262 25.8241 10.2699 25.6944L12.4187 24.4587L12.4509 24.4863C12.4118 24.6141 12.3702 24.7416 12.3349 24.8706C12.0796 25.8031 11.9099 26.7519 11.9709 27.7197C12.0359 28.7509 12.3237 29.7162 12.9274 30.5778C13.4155 31.2747 14.5787 31.3006 15.0974 30.6013C15.2815 30.3528 15.4599 30.0931 15.594 29.8159C15.9443 29.0925 16.2687 28.3563 16.6034 27.625L16.6618 27.4913C16.6377 27.8375 16.6096 28.1416 16.5968 28.4459C16.5768 28.9213 16.6046 29.3938 16.7671 29.8459C16.9062 30.2328 17.1427 30.5219 17.5859 30.5728C17.889 30.6075 18.1305 30.4687 18.3534 30.2928C18.6984 30.0199 18.9845 29.6798 19.1943 29.2931C19.7884 28.2022 20.3984 27.1178 20.9368 25.9994C21.5193 24.7897 22.0287 23.5447 22.5696 22.3144L22.659 22.0963C22.7868 22.5984 22.8759 23.0903 23.0399 23.5559C23.2305 24.0962 23.4665 24.6237 23.7234 25.1366C23.8449 25.3787 23.8309 25.5359 23.6624 25.7391C22.9574 26.5891 22.2646 27.4494 21.5712 28.3087C21.4177 28.4984 21.2649 28.6916 21.1371 28.8987C21.0596 29.0296 21.0086 29.1744 20.9871 29.325C20.9656 29.4636 20.9986 29.6052 21.0792 29.72C21.1597 29.8348 21.2816 29.914 21.4193 29.9409C21.6972 30.0006 21.982 30.0209 22.2655 30.0012C23.2334 29.93 24.1121 29.5903 24.889 29.0147C25.8955 28.2691 26.2187 27.2516 25.9749 26.0456C25.909 25.7184 25.7924 25.4003 25.679 25.085C25.628 24.9428 25.6246 24.8431 25.7174 24.7106C26.5221 23.5616 27.2096 22.3425 27.849 21.0953C27.8743 21.0462 27.9002 20.9972 27.9446 20.9447C28.1518 22.0228 28.4637 23.0619 29.0224 24.0047C28.7374 24.2794 28.4552 24.5284 28.1999 24.8028C27.6377 25.4072 27.1502 26.0634 26.8959 26.8637C26.7865 27.2087 26.7024 27.5594 26.7512 27.9278C26.8268 28.5 27.2955 28.8719 27.8584 28.7416C29.0627 28.4628 30.1024 27.8953 30.8621 26.89C31.3734 26.2131 31.4199 25.4581 31.2059 24.6672C31.1471 24.4522 31.0774 24.2406 31.0024 23.9941C31.2996 23.9019 31.5893 23.7913 31.889 23.7228C33.4449 23.3678 34.984 23.4297 36.4834 23.9916C37.3587 24.3197 38.0659 24.8688 38.4852 25.7325C38.9974 26.7884 38.7143 27.7903 37.719 28.4578C37.6262 28.52 37.5199 28.5691 37.443 28.6469C37.4184 28.6754 37.4 28.7088 37.389 28.7448C37.378 28.7809 37.3746 28.8188 37.379 28.8562C37.3855 28.8947 37.4871 28.9428 37.5455 28.9422C37.8727 28.9397 38.138 28.7681 38.3927 28.5919C39.0309 28.1503 39.4965 27.5563 39.5968 26.7741L39.6165 26.7153L39.5924 26.2059C39.5827 26.1766 39.5996 26.1475 39.5974 26.1253C39.4618 24.9862 38.8534 24.1028 37.9684 23.4103C36.9434 22.6088 35.733 22.2787 34.453 22.2266C33.4149 22.1819 32.3781 22.3415 31.4015 22.6962C31.1212 22.7978 30.8434 22.9181 30.5615 23.0316C30.5237 22.9631 30.483 22.8975 30.4496 22.8297C30.1602 22.2372 29.8096 21.6709 29.7321 20.9916C29.6771 20.5091 29.6096 20.0272 29.7243 19.55C29.8346 19.0909 29.9784 18.6397 30.1137 18.1869C30.1834 17.9538 30.1343 17.8231 29.9118 17.7181C29.834 17.68 29.7514 17.6529 29.6662 17.6375C29.1193 17.5581 28.5799 17.6034 28.0502 17.7575C27.8627 17.8122 27.7265 17.9172 27.6849 18.1247C27.6612 18.2438 27.6127 18.3578 27.579 18.4753C27.4405 18.9637 27.3424 19.4616 27.1187 19.9269C26.558 21.0941 25.918 22.2172 25.263 23.3322C25.1921 23.4525 25.1174 23.5706 25.028 23.7166C24.798 23.2353 24.5527 22.8034 24.4784 22.2972C24.3943 21.7247 24.328 21.1531 24.4705 20.585C24.5765 20.1613 24.7149 19.7453 24.8424 19.3272C24.9027 19.1284 24.8749 19.0241 24.6949 18.9194C24.604 18.8666 24.5012 18.8197 24.3987 18.8044C23.8379 18.7189 23.265 18.7658 22.7255 18.9412C22.5559 18.9962 22.4668 19.1059 22.4149 19.2809C22.2624 19.7972 22.1324 20.3259 21.9184 20.8169C21.0515 22.8044 20.1596 24.7816 19.2687 26.7584C19.0827 27.1712 18.8649 27.5697 18.6552 27.9716C18.6021 28.0734 18.5246 28.1631 18.4584 28.2588C18.4052 28.1959 18.3846 28.1528 18.3849 28.1097C18.3865 27.8556 18.3562 27.5941 18.4046 27.3484C18.5533 26.6056 18.7177 25.8659 18.8977 25.13C19.0446 24.5219 19.2155 23.9194 19.3784 23.3153C19.433 23.1131 19.434 22.9241 19.2887 22.7541C19.0446 22.4694 18.5346 22.4069 18.2321 22.6262L18.0984 22.7019L18.1243 22.4863C18.188 22.0241 18.2009 21.5634 18.074 21.1081C17.9159 20.5406 17.5109 20.2141 16.9221 20.2322C16.6477 20.2406 16.3596 20.2875 16.1055 20.3875C15.0371 20.8062 14.2155 21.5478 13.5162 22.44C13.4513 22.5228 13.3709 22.5922 13.2796 22.6444C12.3755 23.1456 11.4687 23.6406 10.5621 24.1375L9.55305 24.6903C9.28242 24.4322 9.03648 24.1644 8.75742 23.9372C7.90523 23.2422 7.0393 22.5644 6.18117 21.8772C5.42055 21.2681 4.68367 20.6337 4.11992 19.8272C3.70055 19.2272 3.43023 18.5706 3.4043 17.8287C3.37148 16.8834 3.63961 16.0197 4.12086 15.2156C4.73648 14.1869 5.57617 13.3612 6.4993 12.6134C7.47586 11.8228 8.53211 11.1516 9.6268 10.5387C11.1584 9.68156 12.7337 8.92281 14.4227 8.42188C16.1546 7.90813 17.9118 7.61406 19.7243 7.81906C20.4368 7.89969 21.1287 8.06281 21.764 8.41125C22.2505 8.67781 22.6496 9.02687 22.8352 9.5725C23.0184 10.1094 23.0127 10.6534 22.8859 11.1987C22.628 12.3031 22.0234 13.2134 21.2624 14.0269C20.0143 15.3603 18.4918 16.2681 16.7777 16.8678C15.7922 17.213 14.7668 17.4317 13.7262 17.5188C12.8734 17.5903 12.0384 17.5147 11.2309 17.2181C10.6962 17.0216 10.2305 16.7209 9.85617 16.2847C9.7893 16.2066 9.70367 16.1219 9.57898 16.195C9.4568 16.2669 9.43523 16.3831 9.47617 16.5009C9.54461 16.6966 9.60773 16.9003 9.7143 17.0753C9.98211 17.5144 10.3727 17.8328 10.8027 18.1059C11.6287 18.6312 12.5518 18.8078 13.509 18.8488C14.9615 18.9116 16.3787 18.6947 17.7759 18.305C19.7705 17.7488 21.5049 16.7663 22.8959 15.2163C24.054 13.9256 24.8812 12.4691 25.0584 10.7103C25.1449 9.85187 25.0527 9.01094 24.6509 8.22781C24.2149 7.37938 23.5218 6.74844 22.693 6.31375C21.4862 5.68094 20.1837 5.3125 18.8393 5.3125H17.4924C15.8643 5.3125 14.2902 5.77906 12.7602 6.33563C11.6021 6.75719 10.4665 7.25469 9.36398 7.80531C6.96305 9.005 4.72711 10.4516 2.89055 12.4406C1.97555 13.4316 1.20086 14.525 0.755234 15.8125C0.620967 16.197 0.505106 16.5876 0.408047 16.9831M9.10773 28.2372C9.00367 29.6306 8.37211 30.7603 7.33992 31.6753C6.7593 32.1897 6.09336 32.5559 5.31773 32.6847C5.03648 32.7313 4.74867 32.7425 4.47586 32.6259C4.0868 32.4597 3.99961 32.1144 3.99211 31.7466C3.98055 31.1603 4.18586 30.6303 4.46742 30.1259C4.83492 29.4684 5.37367 28.9672 5.94898 28.4991C6.85523 27.7612 7.83836 27.1369 8.84523 26.5475L8.92117 26.5162C9.0768 27.0912 9.15086 27.6591 9.10773 28.2372ZM16.9696 22.1813C16.8962 22.6263 16.8043 23.0716 16.6743 23.5028C16.2249 24.9956 15.6477 26.4422 15.0237 27.8694C14.9084 28.1334 14.7405 28.3744 14.5946 28.6247C14.5698 28.6631 14.54 28.6982 14.5062 28.7291C14.3255 28.9075 14.1543 28.8981 14.063 28.6647C13.9568 28.3934 13.8915 28.1031 13.8352 27.8159C13.7974 27.6231 13.8065 27.4206 13.7946 27.2231C13.8068 25.8187 14.2352 24.5425 14.9621 23.3544C15.2618 22.8644 15.588 22.3975 16.0865 22.0875C16.2416 21.9912 16.4093 21.9169 16.5849 21.8669C16.8505 21.7922 17.0137 21.915 16.9696 22.1813ZM22.3334 29.015L24.2612 26.7641C24.3415 27.6 22.9205 29.2687 22.3334 29.015ZM28.4905 27.5003C28.3543 27.5784 28.2059 27.6347 28.0662 27.7069C27.9384 27.7731 27.8962 27.7062 27.8924 27.5962C27.8906 27.5201 27.9004 27.4441 27.9215 27.3709C28.1818 26.4528 28.6609 25.6691 29.3737 25.0316L29.4237 25.0059C29.7627 25.9544 29.3709 26.9959 28.4905 27.5003Z" fill="#CB6699"/>
</svg>
