<svg width="22" height="22" viewBox="0 0 22 22" fill="none" xmlns="http://www.w3.org/2000/svg">
<g clip-path="url(#clip0_299_1035)">
<path d="M19.7398 6.51836C19.7527 6.71172 19.7527 6.90938 19.7527 7.10273C19.7527 13.0625 15.2152 19.9332 6.92227 19.9332C4.36563 19.9332 1.99375 19.1941 0 17.9094C0.360937 17.9523 0.713281 17.9652 1.08711 17.9652C3.19687 17.9652 5.13477 17.252 6.68594 16.0402C4.70508 15.9973 3.04219 14.6996 2.4707 12.9121C2.75 12.9551 3.0293 12.9809 3.32148 12.9809C3.72539 12.9809 4.1293 12.925 4.50742 12.8262C2.44063 12.4094 0.89375 10.5918 0.89375 8.40039V8.34453C1.49531 8.67969 2.19141 8.89023 2.93047 8.91602C1.71445 8.1082 0.919531 6.72461 0.919531 5.16055C0.919531 4.32266 1.14297 3.55352 1.53398 2.8832C3.75547 5.62031 7.08984 7.40781 10.8324 7.60117C10.7637 7.26602 10.7207 6.91797 10.7207 6.56992C10.7207 4.08633 12.7316 2.0625 15.2281 2.0625C16.5258 2.0625 17.6988 2.6082 18.5238 3.48477C19.5422 3.29141 20.5219 2.91328 21.3855 2.39766C21.0504 3.44609 20.3371 4.32266 19.4047 4.88125C20.3113 4.78242 21.1922 4.5332 22 4.18516C21.3855 5.07891 20.6164 5.87383 19.7398 6.51836Z" fill="white"/>
</g>
<defs>
<clipPath id="clip0_299_1035">
<rect width="22" height="22" fill="white"/>
</clipPath>
</defs>
</svg>
