<svg width="40" height="40" viewBox="0 0 40 40" fill="none" xmlns="http://www.w3.org/2000/svg">
<path d="M19.9277 30.1187C18.4478 30.1246 16.9722 29.9597 15.5302 29.6275C15.1018 29.5297 14.6815 29.3997 14.2727 29.2388L15.2889 30.975L15.6864 36.4C15.6864 37.0088 17.6189 37.5012 20.0014 37.5012C22.3839 37.5012 24.3164 37.0088 24.3164 36.4L24.6314 30.9163L25.5927 29.2337C25.1803 29.397 24.7562 29.5286 24.3239 29.6275C22.8822 29.9596 21.4071 30.1245 19.9277 30.1187ZM25.6252 12.4662C23.7594 12.6993 21.8803 12.8083 20.0002 12.7925C18.12 12.8083 16.2409 12.6993 14.3752 12.4662C13.7825 12.3946 13.1971 12.2724 12.6252 12.1012C12.4761 12.0552 12.3318 11.9954 12.1939 11.9225L13.1252 20.5C13.1685 20.3525 13.2168 20.205 13.2702 20.0575C13.3789 19.7563 13.5041 19.4612 13.6452 19.1737C13.7846 18.8921 13.9415 18.6195 14.1152 18.3575C14.2781 18.1091 14.4586 17.8727 14.6552 17.65C14.8334 17.4468 15.0301 17.2606 15.2427 17.0938C15.429 16.9467 15.6336 16.8245 15.8514 16.73C16.0434 16.6463 16.2507 16.6037 16.4602 16.605C16.6974 16.6064 16.9298 16.6721 17.1327 16.795C17.3792 16.9513 17.5869 17.1616 17.7402 17.41C17.7809 17.4676 17.8091 17.5332 17.8227 17.6025C17.833 17.6632 17.8389 17.7247 17.8402 17.7863C17.8457 17.9014 17.8112 18.0149 17.7427 18.1075C17.716 18.1438 17.6812 18.1734 17.641 18.1938C17.6009 18.2142 17.5565 18.2249 17.5114 18.225C17.4665 18.2225 17.4228 18.21 17.3834 18.1884C17.3441 18.1667 17.31 18.1365 17.2839 18.1C17.195 17.9842 17.1163 17.8608 17.0489 17.7313C16.9856 17.6067 16.8935 17.4991 16.7802 17.4175C16.6862 17.3535 16.5751 17.3195 16.4614 17.32C16.2525 17.3322 16.0527 17.4096 15.8902 17.5413C15.6662 17.7105 15.4642 17.907 15.2889 18.1263C15.0763 18.3879 14.8853 18.6663 14.7177 18.9588C14.5374 19.2682 14.3762 19.5883 14.2352 19.9175C14.1 20.2313 13.9885 20.5547 13.9014 20.885C13.8245 21.1641 13.7825 21.4518 13.7764 21.7412C13.7777 21.8282 13.7836 21.9149 13.7939 22.0013C13.8038 22.0848 13.8257 22.1665 13.8589 22.2438C13.8869 22.3118 13.9296 22.3728 13.9839 22.4225C14.0424 22.4701 14.1161 22.495 14.1914 22.4925C14.3046 22.4873 14.4148 22.4547 14.5127 22.3975C14.6449 22.3256 14.7704 22.242 14.8877 22.1475C15.0228 22.0381 15.1521 21.9217 15.2752 21.7987C15.4052 21.6696 15.526 21.5383 15.6377 21.405C15.7493 21.2717 15.8485 21.1442 15.9352 21.0225C16.008 20.9213 16.0732 20.8147 16.1302 20.7037L16.4852 19.6413C16.5147 19.5424 16.574 19.455 16.6552 19.3912C16.718 19.3452 16.7935 19.3199 16.8714 19.3188C16.9075 19.3194 16.9433 19.3253 16.9777 19.3363C17.0146 19.3486 17.0484 19.369 17.0765 19.396C17.1046 19.4231 17.1264 19.456 17.1402 19.4925C17.1577 19.5379 17.1662 19.5863 17.1652 19.635C17.1654 19.7718 17.1524 19.9082 17.1264 20.0425C17.1004 20.1691 17.0678 20.2943 17.0289 20.4175C16.9897 20.5383 16.946 20.6596 16.8977 20.7813C16.8493 20.9029 16.8022 21.0304 16.7564 21.1637C16.7352 21.2101 16.7168 21.2577 16.7014 21.3063L16.6039 21.6075C16.5656 21.725 16.5239 21.86 16.4789 22.0125L16.3414 22.4688C16.2939 22.6238 16.2489 22.7758 16.2064 22.925C16.1639 23.0742 16.1252 23.2092 16.0902 23.33L16.0039 23.6325C15.9814 23.7138 15.9664 23.7575 15.9614 23.7775C15.9447 23.8322 15.9242 23.8856 15.9002 23.9375C15.8716 23.9958 15.8386 24.0518 15.8014 24.105C15.7659 24.1524 15.7238 24.1945 15.6764 24.23C15.6358 24.2616 15.5865 24.2799 15.5352 24.2825C15.5011 24.2853 15.4669 24.2792 15.4358 24.265C15.4047 24.2508 15.3778 24.2288 15.3577 24.2013C15.3129 24.1084 15.2939 24.0052 15.3027 23.9025V23.7713C15.319 23.6789 15.3432 23.5882 15.3752 23.5C15.411 23.3675 15.4527 23.2175 15.5002 23.05C15.5477 22.8825 15.601 22.7092 15.6602 22.53L15.8152 22.0488C15.6802 22.1996 15.5339 22.3496 15.3764 22.4988C15.2234 22.643 15.0614 22.7774 14.8914 22.9012C14.735 23.0149 14.5674 23.1125 14.3914 23.1925C14.2395 23.2639 14.0742 23.3022 13.9064 23.305C13.7452 23.309 13.586 23.2683 13.4464 23.1875C13.4231 23.1733 13.401 23.1579 13.3802 23.1413L13.8989 28.5812C14.0339 28.92 16.5764 29.7513 19.9302 29.7513C23.2839 29.7513 25.8289 28.9188 25.9614 28.58L26.7114 22.1125L26.5327 22.2775C26.3402 22.4589 26.1382 22.63 25.9277 22.79C25.7564 22.9223 25.5701 23.0339 25.3727 23.1225C25.189 23.1998 24.9919 23.2397 24.7927 23.24C24.6332 23.2508 24.4748 23.2067 24.3439 23.115C24.2922 23.0735 24.2508 23.0204 24.2233 22.9601C24.1957 22.8998 24.1827 22.8338 24.1852 22.7675V22.695C24.2043 22.5842 24.2446 22.4781 24.3039 22.3825C24.3799 22.2556 24.4634 22.1333 24.5539 22.0163C24.6506 21.8896 24.7535 21.7613 24.8627 21.6313C24.9718 21.5013 25.0731 21.3783 25.1664 21.2625C25.249 21.1604 25.3262 21.054 25.3977 20.9437C25.4476 20.8745 25.4791 20.7936 25.4889 20.7087C25.4878 20.676 25.4739 20.6451 25.4502 20.6225C25.4131 20.5986 25.3691 20.5876 25.3252 20.5912C25.2157 20.5942 25.1081 20.6211 25.0102 20.67C24.895 20.7278 24.7872 20.7992 24.6889 20.8825C24.5773 20.975 24.474 21.0771 24.3802 21.1875C24.2806 21.3023 24.1863 21.4216 24.0977 21.545C24.0102 21.6683 23.9302 21.7933 23.8577 21.92C23.7852 22.0467 23.7235 22.1621 23.6727 22.2662L23.6077 22.4062C23.5793 22.4662 23.5489 22.5342 23.5164 22.61C23.4839 22.6858 23.4489 22.7633 23.4114 22.8425L23.3102 23.0688L23.2277 23.2588L23.1764 23.3737C23.1664 23.3946 23.1456 23.4458 23.1139 23.5275L23.0127 23.7925L22.8877 24.1112L22.7689 24.4275L22.6714 24.69C22.6439 24.765 22.626 24.8163 22.6177 24.8438C22.5931 24.9196 22.563 24.9936 22.5277 25.065C22.4959 25.131 22.456 25.1927 22.4089 25.2487C22.3669 25.3001 22.315 25.3426 22.2564 25.3737C22.1977 25.4066 22.1312 25.423 22.0639 25.4213C21.983 25.4247 21.9032 25.4019 21.8364 25.3563C21.8032 25.3243 21.7778 25.2851 21.7622 25.2418C21.7466 25.1984 21.7412 25.152 21.7464 25.1062C21.7462 25.0439 21.7537 24.9817 21.7689 24.9213C21.7831 24.8573 21.8024 24.7946 21.8264 24.7338C21.8489 24.6704 21.8727 24.61 21.8977 24.5525C21.9352 24.4663 21.9439 24.4375 21.9639 24.3825C22.1014 24.0808 22.2414 23.7788 22.3839 23.4763C22.5264 23.1738 22.6631 22.8738 22.7939 22.5763L22.8727 22.3925L22.8489 22.4163C22.6916 22.5679 22.5246 22.709 22.3489 22.8388C22.1976 22.9541 22.0336 23.0518 21.8602 23.13C21.7128 23.2 21.552 23.2371 21.3889 23.2387C21.2992 23.241 21.2101 23.224 21.1277 23.1888C21.0615 23.1584 21.0039 23.112 20.9602 23.0538C20.9152 22.9935 20.8845 22.9238 20.8702 22.85C20.8702 22.8238 20.8602 22.795 20.8564 22.7675L20.7214 22.8688C20.5751 22.9734 20.419 23.0634 20.2552 23.1375C20.1265 23.2004 19.9858 23.2349 19.8427 23.2387C19.787 23.2405 19.7316 23.2303 19.6803 23.2087C19.6289 23.1871 19.5829 23.1547 19.5452 23.1137C19.4569 22.9939 19.4164 22.8456 19.4314 22.6975C19.436 22.5346 19.4565 22.3726 19.4927 22.2138C19.4199 22.34 19.3362 22.4596 19.2427 22.5712C19.142 22.6936 19.0279 22.8043 18.9027 22.9012C18.7722 23.0014 18.6283 23.0826 18.4752 23.1425C18.311 23.206 18.1362 23.2374 17.9602 23.235C17.8783 23.236 17.7966 23.2255 17.7177 23.2037C17.6422 23.1839 17.5724 23.1467 17.5139 23.095C17.4516 23.038 17.4033 22.9674 17.3727 22.8888C17.3345 22.7852 17.3162 22.6753 17.3189 22.565C17.3189 22.565 17.3189 22.5162 17.3339 22.4275C17.3563 22.2853 17.3889 22.145 17.4314 22.0075C17.4864 21.8158 17.5697 21.5658 17.6814 21.2575C17.7931 20.9492 17.9547 20.58 18.1664 20.15C18.206 20.0524 18.2697 19.9664 18.3514 19.9C18.417 19.8508 18.4969 19.8245 18.5789 19.825C18.6166 19.8248 18.6541 19.8303 18.6902 19.8413C18.7284 19.8521 18.7647 19.869 18.7977 19.8913C18.8308 19.9132 18.8582 19.9428 18.8777 19.9775C18.8984 20.0158 18.9087 20.0589 18.9077 20.1025C18.9073 20.1316 18.9035 20.1605 18.8964 20.1887C18.8748 20.2581 18.8472 20.3254 18.8139 20.39C18.7722 20.4733 18.7231 20.5683 18.6664 20.675C18.6097 20.7817 18.5506 20.8971 18.4889 21.0212C18.4264 21.1446 18.3685 21.2725 18.3152 21.405C18.2617 21.5373 18.2157 21.6725 18.1777 21.81C18.1406 21.9404 18.1188 22.0746 18.1127 22.21C18.1124 22.2621 18.1258 22.3134 18.1514 22.3587C18.1641 22.3803 18.1825 22.398 18.2045 22.4099C18.2265 22.4218 18.2514 22.4274 18.2764 22.4263C18.4476 22.4242 18.6137 22.3672 18.7502 22.2638C18.9068 22.1484 19.0468 22.0122 19.1664 21.8587C19.2957 21.6953 19.4111 21.5214 19.5114 21.3387C19.6147 21.1537 19.7006 20.9842 19.7689 20.83C19.8183 20.7231 19.8601 20.6128 19.8939 20.5C19.9305 20.3898 19.9722 20.2813 20.0189 20.175C20.056 20.0849 20.1062 20.0006 20.1677 19.925C20.1926 19.8933 20.2246 19.8678 20.261 19.8505C20.2974 19.8331 20.3373 19.8244 20.3777 19.825C20.4196 19.8237 20.4612 19.8324 20.499 19.8504C20.5369 19.8685 20.5698 19.8953 20.5952 19.9288C20.6492 20.0007 20.6774 20.0888 20.6752 20.1787C20.6697 20.2555 20.6524 20.331 20.6239 20.4025C20.5897 20.4975 20.5481 20.6058 20.4989 20.7275C20.4497 20.8492 20.3931 20.9796 20.3289 21.1188C20.2681 21.2579 20.2114 21.3987 20.1589 21.5412C20.1091 21.6787 20.0674 21.8189 20.0339 21.9613C20.0017 22.0863 19.9845 22.2147 19.9827 22.3438C19.9799 22.3662 19.9823 22.389 19.9899 22.4103C19.9974 22.4316 20.0097 22.4509 20.026 22.4667C20.0422 22.4824 20.0619 22.4942 20.0834 22.5011C20.105 22.5079 20.1278 22.5097 20.1502 22.5062C20.2526 22.4996 20.3526 22.4719 20.4439 22.425C20.5748 22.3624 20.6984 22.2856 20.8127 22.1963L20.9089 22.12C20.9428 21.9815 20.9845 21.845 21.0339 21.7112C21.1231 21.4762 21.2135 21.2425 21.3052 21.01L21.5552 20.3725L22.7114 17.4563C22.7449 17.3554 22.8097 17.2678 22.8964 17.2063C22.9662 17.1601 23.0478 17.135 23.1314 17.1337C23.2097 17.1334 23.2858 17.1604 23.3464 17.21C23.3809 17.2412 23.4077 17.2801 23.4247 17.3235C23.4416 17.3669 23.4482 17.4136 23.4439 17.46C23.4432 17.5185 23.4322 17.5765 23.4114 17.6312C23.3867 17.6974 23.3591 17.7624 23.3289 17.8262C23.2656 17.9679 23.1897 18.1413 23.1014 18.3463C23.0131 18.5513 22.9189 18.7742 22.8189 19.015C22.7189 19.2558 22.616 19.5058 22.5102 19.765L22.2014 20.5262L21.9189 21.2287L21.6914 21.805C21.6598 21.8844 21.6322 21.9653 21.6089 22.0475C21.5835 22.1285 21.57 22.2127 21.5689 22.2975C21.5682 22.335 21.5758 22.3721 21.5914 22.4062C21.6003 22.421 21.6134 22.4327 21.6289 22.4401C21.6445 22.4474 21.6619 22.45 21.6789 22.4475C21.7488 22.443 21.8169 22.4238 21.8789 22.3913C21.9685 22.3469 22.0553 22.2972 22.1389 22.2425C22.2322 22.1808 22.3289 22.11 22.4289 22.03C22.5289 21.95 22.6289 21.8667 22.7289 21.78C22.8281 21.6967 22.9231 21.6108 23.0139 21.5225C23.1047 21.4342 23.1856 21.355 23.2564 21.285C23.2732 21.2682 23.2932 21.2551 23.3152 21.2462C23.3585 21.1212 23.3972 20.9963 23.4314 20.8713L23.5152 20.64C23.5526 20.5404 23.5943 20.4423 23.6402 20.3463C23.6818 20.2571 23.7338 20.1732 23.7952 20.0962C23.8174 20.0677 23.8455 20.0443 23.8777 20.0277C23.9099 20.011 23.9452 20.0016 23.9814 20C24.0211 19.9964 24.0611 20.0007 24.0991 20.0127C24.1371 20.0248 24.1723 20.0442 24.2027 20.07C24.2517 20.1271 24.2764 20.2012 24.2714 20.2763L24.2639 20.3625C24.2639 20.4013 24.2527 20.4437 24.2452 20.4875L24.2202 20.6125L24.1952 20.6988C24.2893 20.5963 24.391 20.4946 24.5002 20.3938C24.6081 20.296 24.7216 20.2046 24.8402 20.12C24.9526 20.0416 25.0728 19.975 25.1989 19.9213C25.3151 19.873 25.4394 19.8472 25.5652 19.845C25.6498 19.8449 25.734 19.8571 25.8152 19.8812C25.8942 19.9043 25.969 19.9402 26.0364 19.9875C26.1015 20.034 26.1557 20.0942 26.1952 20.1638C26.237 20.2403 26.2582 20.3265 26.2564 20.4137C26.2527 20.5509 26.2208 20.6857 26.1627 20.81C26.0963 20.9572 26.0177 21.0985 25.9277 21.2325C25.8335 21.3742 25.7318 21.5121 25.6227 21.6462C25.5135 21.7804 25.411 21.9025 25.3152 22.0125L25.0739 22.2925C25.029 22.3365 24.9944 22.3898 24.9727 22.4487C24.9721 22.4818 24.9847 22.5137 25.0077 22.5375C25.0403 22.563 25.0814 22.5751 25.1227 22.5712C25.1912 22.5625 25.2568 22.5377 25.3139 22.4988C25.4361 22.4223 25.5538 22.3388 25.6664 22.2487C25.8181 22.1296 26.0102 21.97 26.2427 21.77C26.4027 21.6317 26.5885 21.4692 26.8002 21.2825L27.8102 11.9325C27.6723 12.0054 27.5279 12.0652 27.3789 12.1113C26.8055 12.2793 26.2188 12.398 25.6252 12.4662ZM20.0002 10.25C15.6352 10.25 12.0977 10.7375 12.0977 11.34C12.0977 11.9425 15.6252 12.4275 20.0002 12.4275C24.3752 12.4275 27.9027 11.94 27.9027 11.3375C27.9027 10.735 24.3602 10.25 20.0002 10.25ZM23.1552 11.6587C23.1552 11.8 22.7352 11.9088 22.2164 11.9088C21.6977 11.9088 21.2777 11.7937 21.2777 11.6587C21.2777 11.5237 21.6977 11.4088 22.2164 11.4088C22.7352 11.4088 23.1514 11.515 23.1514 11.6562L23.1552 11.6587Z" fill="#DA4648"/>
<path d="M21.4626 11.5434C21.4577 11.5499 21.4551 11.5578 21.4551 11.5659C21.4551 11.6572 21.7938 11.7309 22.2051 11.7309C22.6163 11.7309 22.9551 11.6572 22.9551 11.5659L23.9426 7.56592L27.8701 3.41967C27.9526 3.32592 27.7851 3.03467 27.5051 2.78467C27.2251 2.53467 26.9226 2.45092 26.8288 2.54592L22.6526 6.94967L21.4626 11.5434Z" fill="#DA4648"/>
</svg>
