<svg width="40" height="40" viewBox="0 0 40 40" fill="none" xmlns="http://www.w3.org/2000/svg">
<path d="M4.68293 8.65984C4.60887 6.53016 6.26793 4.56641 8.51074 4.56641H31.492C33.7348 4.56641 35.3939 6.53016 35.3198 8.65984C35.2486 10.7055 35.3411 13.3555 36.0079 15.5161C36.677 17.6836 37.8051 19.0533 39.6529 19.2295V21.2255C37.8051 21.4017 36.677 22.7714 36.0079 24.9389C35.3411 27.0995 35.2486 29.7495 35.3198 31.7952C35.3939 33.9248 33.7348 35.8883 31.492 35.8883H8.51074C6.26793 35.8883 4.60887 33.9245 4.68293 31.7952C4.75418 29.7495 4.66168 27.0995 3.99449 24.9389C3.32574 22.7717 2.19449 21.4017 0.34668 21.2255V19.2295C2.19449 19.0536 3.32574 17.6836 3.99449 15.5161C4.66168 13.3555 4.75387 10.7055 4.68293 8.65984Z" fill="url(#paint0_linear_23122_21634)"/>
<g filter="url(#filter0_d_23122_21634)">
<path d="M20.972 28.6666C24.6029 28.6666 26.7909 26.8888 26.7909 23.9565C26.7909 21.7399 25.2297 20.1352 22.9116 19.8812V19.7889C24.6147 19.5118 25.9512 17.9302 25.9512 16.1639C25.9512 13.6472 23.9642 12.0078 20.9365 12.0078H14.124V28.6666H20.972ZM16.7733 14.1205H20.2978C22.2138 14.1205 23.3019 14.9748 23.3019 16.5217C23.3019 18.1726 22.0364 19.0962 19.742 19.0962H16.7733V14.1205ZM16.7733 26.554V21.0703H20.2741C22.7815 21.0703 24.0825 21.9938 24.0825 23.7948C24.0825 25.5957 22.817 26.554 20.4279 26.554H16.7733Z" fill="url(#paint1_linear_23122_21634)"/>
</g>
<defs>
<filter id="filter0_d_23122_21634" x="12.8957" y="11.0866" width="15.1236" height="19.1148" filterUnits="userSpaceOnUse" color-interpolation-filters="sRGB">
<feFlood flood-opacity="0" result="BackgroundImageFix"/>
<feColorMatrix in="SourceAlpha" type="matrix" values="0 0 0 0 0 0 0 0 0 0 0 0 0 0 0 0 0 0 127 0" result="hardAlpha"/>
<feOffset dy="0.307075"/>
<feGaussianBlur stdDeviation="0.61415"/>
<feColorMatrix type="matrix" values="0 0 0 0 0 0 0 0 0 0 0 0 0 0 0 0 0 0 0.15 0"/>
<feBlend mode="normal" in2="BackgroundImageFix" result="effect1_dropShadow_23122_21634"/>
<feBlend mode="normal" in="SourceGraphic" in2="effect1_dropShadow_23122_21634" result="shape"/>
</filter>
<linearGradient id="paint0_linear_23122_21634" x1="6.18748" y1="5.39536" x2="40.5339" y2="32.6599" gradientUnits="userSpaceOnUse">
<stop stop-color="#9013FE"/>
<stop offset="1" stop-color="#6610F2"/>
</linearGradient>
<linearGradient id="paint1_linear_23122_21634" x1="15.3225" y1="13.1041" x2="22.9994" y2="26.088" gradientUnits="userSpaceOnUse">
<stop stop-color="white"/>
<stop offset="1" stop-color="#F1E5FC"/>
</linearGradient>
</defs>
</svg>
