<svg width="20" height="20" viewBox="0 0 20 20" fill="none" xmlns="http://www.w3.org/2000/svg">
<path d="M7.5004 10C7.5004 8.61935 8.61935 7.4998 10 7.4998C11.3807 7.4998 12.5002 8.61935 12.5002 10C12.5002 11.3807 11.3807 12.5002 10 12.5002C8.61935 12.5002 7.5004 11.3807 7.5004 10ZM6.14883 10C6.14883 12.127 7.87298 13.8512 10 13.8512C12.127 13.8512 13.8512 12.127 13.8512 10C13.8512 7.87298 12.127 6.14883 10 6.14883C7.87298 6.14883 6.14883 7.87298 6.14883 10ZM13.1036 5.99616C13.1036 6.49293 13.5065 6.89641 14.0038 6.89641C14.5006 6.89641 14.9041 6.49293 14.9041 5.99616C14.9041 5.49939 14.5012 5.09653 14.0038 5.09653C13.5065 5.09653 13.1036 5.49939 13.1036 5.99616ZM6.96971 16.1048C6.23849 16.0715 5.84107 15.9497 5.57694 15.8467C5.22678 15.7104 4.97718 15.5481 4.71426 15.2857C4.45194 15.0234 4.28897 14.7738 4.15327 14.4237C4.05028 14.1595 3.92851 13.7621 3.89519 13.0309C3.85884 12.2403 3.85158 12.0028 3.85158 10C3.85158 7.99717 3.85945 7.7603 3.89519 6.9691C3.92851 6.23788 4.05089 5.84107 4.15327 5.57633C4.28958 5.22617 4.45194 4.97658 4.71426 4.71365C4.97658 4.45133 5.22617 4.28837 5.57694 4.15267C5.84107 4.04968 6.23849 3.92791 6.96971 3.89459C7.7603 3.85824 7.99778 3.85097 10 3.85097C12.0028 3.85097 12.2397 3.85884 13.0309 3.89459C13.7621 3.92791 14.1589 4.05028 14.4237 4.15267C14.7738 4.28837 15.0234 4.45133 15.2863 4.71365C15.5487 4.97597 15.711 5.22617 15.8473 5.57633C15.9503 5.84047 16.0721 6.23788 16.1054 6.9691C16.1418 7.7603 16.149 7.99717 16.149 10C16.149 12.0022 16.1418 12.2397 16.1054 13.0309C16.0721 13.7621 15.9497 14.1595 15.8473 14.4237C15.711 14.7738 15.5487 15.0234 15.2863 15.2857C15.024 15.5481 14.7738 15.7104 14.4237 15.8467C14.1595 15.9497 13.7621 16.0715 13.0309 16.1048C12.2403 16.1412 12.0028 16.1484 10 16.1484C7.99778 16.1484 7.7603 16.1412 6.96971 16.1048V16.1048ZM6.90792 2.54544C6.10945 2.58179 5.56422 2.7084 5.08744 2.89378C4.59431 3.08522 4.17629 3.34208 3.75889 3.75889C3.34208 4.17569 3.08522 4.5937 2.89378 5.08744C2.7084 5.56422 2.58179 6.10945 2.54544 6.90792C2.50848 7.70759 2.5 7.96325 2.5 10C2.5 12.0368 2.50848 12.2924 2.54544 13.0921C2.58179 13.8905 2.7084 14.4358 2.89378 14.9126C3.08522 15.4057 3.34148 15.8243 3.75889 16.2411C4.17569 16.6579 4.5937 16.9142 5.08744 17.1062C5.56482 17.2916 6.10945 17.4182 6.90792 17.4546C7.7082 17.4909 7.96325 17.5 10 17.5C12.0374 17.5 12.2924 17.4915 13.0921 17.4546C13.8905 17.4182 14.4358 17.2916 14.9126 17.1062C15.4057 16.9142 15.8237 16.6579 16.2411 16.2411C16.6579 15.8243 16.9142 15.4057 17.1062 14.9126C17.2916 14.4358 17.4188 13.8905 17.4546 13.0921C17.4909 12.2918 17.4994 12.0368 17.4994 10C17.4994 7.96325 17.4909 7.70759 17.4546 6.90792C17.4182 6.10945 17.2916 5.56422 17.1062 5.08744C16.9142 4.59431 16.6579 4.17629 16.2411 3.75889C15.8243 3.34208 15.4057 3.08522 14.9132 2.89378C14.4358 2.7084 13.8905 2.58118 13.0927 2.54544C12.293 2.50909 12.0374 2.5 10.0006 2.5C7.96325 2.5 7.7082 2.50848 6.90792 2.54544" fill="#5D7287"/>
</svg>
