<svg width="54" height="55" viewBox="0 0 54 55" fill="none" xmlns="http://www.w3.org/2000/svg">
<rect y="0.5" width="54" height="54" rx="16" fill="white"/>
<g clip-path="url(#clip0_279_77)">
<path fill-rule="evenodd" clip-rule="evenodd" d="M35.229 31.284C35.3304 31.2258 35.4147 31.1419 35.4734 31.0408C35.5322 30.9397 35.5633 30.825 35.5636 30.708L35.5756 26.85C35.576 26.7331 35.6071 26.6183 35.6659 26.5172C35.7246 26.4161 35.8089 26.3323 35.9103 26.274L38.0016 25.0727C38.103 25.0145 38.2179 24.984 38.3348 24.9842C38.4517 24.9844 38.5664 25.0153 38.6676 25.0738C38.7688 25.1324 38.8527 25.2165 38.9111 25.3178C38.9695 25.419 39.0003 25.5338 39.0003 25.6507V32.6647C39.0003 32.782 38.9693 32.8972 38.9106 32.9986C38.8518 33.1001 38.7673 33.1843 38.6656 33.2427L30.773 37.776C30.6722 37.8339 30.558 37.8644 30.4417 37.8645C30.3255 37.8647 30.2112 37.8344 30.1103 37.7767L23.9163 34.234C23.8143 34.1758 23.7295 34.0915 23.6705 33.9899C23.6114 33.8883 23.5803 33.7729 23.5803 33.6554V30.1187C23.5803 30.1147 23.585 30.112 23.589 30.114C23.5923 30.116 23.597 30.114 23.597 30.1094V30.1054C23.597 30.1027 23.5983 30.1 23.601 30.0987L28.7023 27.168C28.707 27.1654 28.705 27.158 28.6996 27.158C28.6982 27.158 28.6969 27.1575 28.6959 27.1565C28.6949 27.1555 28.6943 27.1541 28.6943 27.1527L28.7043 23.6854C28.7048 23.5681 28.6743 23.4528 28.616 23.3511C28.5577 23.2494 28.4736 23.1649 28.3721 23.106C28.2707 23.0472 28.1556 23.0162 28.0383 23.0161C27.9211 23.0159 27.8059 23.0468 27.7043 23.1054L23.913 25.29C23.8118 25.3483 23.6971 25.379 23.5803 25.379C23.4635 25.379 23.3488 25.3483 23.2476 25.29L19.4443 23.1C19.343 23.0417 19.2281 23.011 19.1112 23.0111C18.9942 23.0112 18.8794 23.042 18.7782 23.1005C18.6769 23.159 18.5928 23.2431 18.5343 23.3444C18.4759 23.4456 18.445 23.5605 18.445 23.6774V29.944C18.4451 30.0609 18.4144 30.1756 18.3562 30.2769C18.298 30.3781 18.2142 30.4623 18.1132 30.521C18.0122 30.5796 17.8975 30.6107 17.7807 30.6112C17.6639 30.6116 17.5491 30.5813 17.4476 30.5234L15.337 29.3167C15.2347 29.2583 15.1498 29.1739 15.0908 29.072C15.0318 28.9701 15.0008 28.8545 15.001 28.7367L15.0196 17.7834C15.0199 17.6666 15.0508 17.552 15.1093 17.4509C15.1678 17.3498 15.2518 17.2659 15.3529 17.2075C15.4541 17.1491 15.5687 17.1183 15.6855 17.1182C15.8023 17.118 15.917 17.1486 16.0183 17.2067L23.2483 21.3594C23.3493 21.4174 23.4638 21.4479 23.5803 21.4479C23.6968 21.4479 23.8113 21.4174 23.9123 21.3594L31.1403 17.2067C31.2417 17.1485 31.3567 17.1179 31.4736 17.1182C31.5905 17.1184 31.7054 17.1494 31.8065 17.208C31.9077 17.2666 31.9917 17.3508 32.0501 17.4522C32.1084 17.5535 32.1391 17.6684 32.139 17.7854V28.7414C32.139 28.8586 32.1082 28.9737 32.0495 29.0752C31.9909 29.1767 31.9065 29.2609 31.805 29.3194L28.0196 31.4994C27.918 31.558 27.8336 31.6424 27.775 31.7441C27.7164 31.8458 27.6857 31.9611 27.6859 32.0785C27.6862 32.1958 27.7175 32.3111 27.7765 32.4125C27.8356 32.5139 27.9204 32.5979 28.0223 32.656L30.1103 33.8447C30.2112 33.9022 30.3254 33.9323 30.4415 33.932C30.5576 33.9318 30.6716 33.9012 30.7723 33.8434L35.229 31.284ZM35.667 21.456C35.6671 21.5739 35.6984 21.6897 35.7578 21.7915C35.8173 21.8934 35.9026 21.9776 36.0052 22.0357C36.1078 22.0938 36.224 22.1236 36.3419 22.1221C36.4598 22.1207 36.5752 22.088 36.6763 22.0274L38.6763 20.8274C38.775 20.7682 38.8568 20.6845 38.9135 20.5844C38.9703 20.4843 39.0002 20.3711 39.0003 20.256V17.8107C39.0001 17.6929 38.9687 17.5772 38.9092 17.4755C38.8497 17.3737 38.7643 17.2896 38.6618 17.2316C38.5592 17.1736 38.4431 17.1438 38.3252 17.1453C38.2074 17.1468 38.0921 17.1795 37.991 17.24L35.991 18.44C35.8922 18.4992 35.8105 18.5829 35.7537 18.683C35.697 18.7832 35.6671 18.8963 35.667 19.0114V21.456Z" fill="#007FFF"/>
</g>
<defs>
<clipPath id="clip0_279_77">
<rect width="24" height="25.6" fill="white" transform="translate(15 14.5)"/>
</clipPath>
</defs>
</svg>
