<svg width="54" height="55" viewBox="0 0 54 55" fill="none" xmlns="http://www.w3.org/2000/svg">
<rect y="0.5" width="54" height="54" rx="16" fill="white"/>
<g clip-path="url(#clip0_279_78)">
<path d="M25.9521 11.5086C25.8833 11.5149 25.6643 11.5368 25.4673 11.5524C20.9222 11.9621 16.6649 14.4141 13.9685 18.1829C12.4671 20.2784 11.5067 22.6554 11.1439 25.1731C11.0156 26.0519 11 26.3115 11 27.5031C11 28.6947 11.0156 28.9543 11.1439 29.8332C12.0135 35.8413 16.2895 40.8892 22.089 42.7595C23.1275 43.0942 24.2223 43.3225 25.4673 43.4601C25.9521 43.5133 28.0479 43.5133 28.5327 43.4601C30.6817 43.2224 32.5022 42.6907 34.2978 41.7743C34.573 41.6336 34.6262 41.5961 34.5887 41.5648C34.5636 41.546 33.3906 39.9729 31.983 38.0713L29.4242 34.6153L26.218 29.8707C24.4538 27.2623 23.0023 25.1293 22.9898 25.1293C22.9773 25.1262 22.9648 27.2342 22.9586 29.8082C22.9492 34.315 22.946 34.4964 22.8897 34.6028C22.8084 34.756 22.7458 34.8186 22.6145 34.8874C22.5144 34.9374 22.4268 34.9468 21.9544 34.9468H21.4133L21.2694 34.8561C21.1756 34.7967 21.1067 34.7185 21.0598 34.6278L20.9941 34.4871L21.0004 28.2162L21.0098 21.9423L21.1067 21.8203C21.1568 21.7546 21.2631 21.6702 21.3382 21.6295C21.4665 21.567 21.5165 21.5607 22.0577 21.5607C22.6958 21.5607 22.8022 21.5857 22.9679 21.7671C23.0149 21.8172 24.7509 24.4318 26.828 27.5813C28.905 30.7308 31.7453 35.0313 33.1404 37.1424L35.6741 40.9799L35.8023 40.8955C36.9378 40.1574 38.139 39.1065 39.0899 38.0119C41.1138 35.688 42.4182 32.8544 42.8561 29.8332C42.9844 28.9543 43 28.6947 43 27.5031C43 26.3115 42.9844 26.0519 42.8561 25.1731C41.9865 19.165 37.7105 14.117 31.911 12.2467C30.8882 11.9152 29.7996 11.6869 28.5797 11.5493C28.2794 11.518 26.2117 11.4836 25.9521 11.5086ZM32.5022 21.1854C32.6524 21.2605 32.7744 21.4043 32.8182 21.5544C32.8432 21.6358 32.8495 23.3747 32.8432 27.2936L32.8338 32.917L31.8422 31.397L30.8475 29.877V25.7892C30.8475 23.1464 30.86 21.6608 30.8788 21.5889C30.9288 21.4137 31.0383 21.2761 31.1885 21.1948C31.3167 21.1291 31.3636 21.1228 31.8547 21.1228C32.3177 21.1228 32.399 21.1291 32.5022 21.1854Z" fill="url(#paint0_linear_279_78)"/>
</g>
<defs>
<linearGradient id="paint0_linear_279_78" x1="27" y1="11.5" x2="27" y2="43.5" gradientUnits="userSpaceOnUse">
<stop stop-color="#555555"/>
<stop offset="1"/>
</linearGradient>
<clipPath id="clip0_279_78">
<rect width="32" height="32" fill="white" transform="translate(11 11.5)"/>
</clipPath>
</defs>
</svg>
