<svg width="54" height="54" viewBox="0 0 54 54" fill="none" xmlns="http://www.w3.org/2000/svg">
<rect width="54" height="54" rx="16" fill="white"/>
<g clip-path="url(#clip0_279_76)">
<path d="M27.4444 29.7514C28.964 29.7514 30.1958 28.5196 30.1958 27.0001C30.1958 25.4806 28.964 24.2488 27.4444 24.2488C25.9249 24.2488 24.6931 25.4806 24.6931 27.0001C24.6931 28.5196 25.9249 29.7514 27.4444 29.7514Z" fill="#139FCD"/>
<path d="M27.4441 33.1905C35.0417 33.1905 41.2007 30.419 41.2007 27C41.2007 23.5811 35.0417 20.8096 27.4441 20.8096C19.8465 20.8096 13.6875 23.5811 13.6875 27C13.6875 30.419 19.8465 33.1905 27.4441 33.1905Z" stroke="#139FCD" stroke-width="1.5"/>
<path d="M22.0831 30.0953C25.8819 36.675 31.3616 40.6231 34.3225 38.9136C37.2834 37.2041 36.6041 30.4845 32.8053 23.9048C29.0065 17.3251 23.5268 13.377 20.5659 15.0864C17.605 16.7959 18.2843 23.5156 22.0831 30.0953Z" stroke="#139FCD" stroke-width="1.5"/>
<path d="M22.0831 23.9047C18.2843 30.4844 17.605 37.2041 20.5659 38.9136C23.5267 40.623 29.0065 36.6749 32.8053 30.0952C36.6041 23.5155 37.2833 16.7959 34.3225 15.0864C31.3616 13.3769 25.8819 17.3251 22.0831 23.9047Z" stroke="#139FCD" stroke-width="1.5"/>
</g>
<defs>
<clipPath id="clip0_279_76">
<rect width="28.8889" height="26" fill="white" transform="translate(13 14)"/>
</clipPath>
</defs>
</svg>
