<svg width="54" height="55" viewBox="0 0 54 55" fill="none" xmlns="http://www.w3.org/2000/svg">
<rect y="0.5" width="54" height="54" rx="16" fill="white"/>
<g clip-path="url(#clip0_279_80)">
<path d="M32.0153 32.3479C32.9747 32.2486 33.7026 31.4214 33.6695 30.4288C33.6365 29.4362 32.8093 28.6421 31.8167 28.6421H31.7506C30.7248 28.6752 29.9308 29.5354 29.9639 30.5611C29.997 31.0574 30.1955 31.4875 30.4932 31.7853C29.3683 34.0022 27.6479 35.6235 25.0672 36.98C23.3136 37.9065 21.4939 38.2374 19.6742 38.0058C18.1853 37.8073 17.0273 37.1456 16.2993 36.0536C15.2406 34.4324 15.1414 32.6787 16.0347 30.9251C16.6634 29.6678 17.6558 28.7413 18.2845 28.2781C18.1522 27.848 17.9536 27.1201 17.8544 26.5907C13.0569 30.0649 13.5532 34.7632 15.009 36.98C16.1008 38.6345 18.3176 39.6602 20.766 39.6602C21.4277 39.6602 22.0893 39.594 22.7511 39.4286C26.9862 38.6014 30.1956 36.0867 32.0153 32.3479ZM37.8384 28.2451C35.3239 25.3003 31.6182 23.679 27.3832 23.679H26.8538C26.5561 23.0835 25.9274 22.6863 25.2326 22.6863H25.1664C24.1408 22.7195 23.3468 23.5797 23.3798 24.6055C23.4129 25.598 24.24 26.3922 25.2326 26.3922H25.2987C26.0266 26.359 26.6553 25.8958 26.92 25.2671H27.5155C30.0301 25.2671 32.4123 25.995 34.563 27.4178C36.2172 28.5097 37.4083 29.9325 38.07 31.653C38.6325 33.0427 38.5993 34.3992 38.0038 35.5574C37.0774 37.3109 35.5224 38.2705 33.4711 38.2705C32.1476 38.2705 30.8904 37.8734 30.2286 37.5756C29.8647 37.9065 29.2029 38.4358 28.7397 38.7668C30.1625 39.4285 31.6182 39.7925 33.0078 39.7925C36.1841 39.7925 38.5332 38.0388 39.4266 36.2853C40.386 34.3661 40.3198 31.0574 37.8384 28.2451ZM21.0307 32.9102C21.0638 33.9029 21.8909 34.6969 22.8835 34.6969H22.9497C23.9754 34.6639 24.7694 33.8036 24.7363 32.7779C24.7033 31.7852 23.876 30.9912 22.8835 30.9912H22.8174C22.7511 30.9912 22.6518 30.9912 22.5858 31.0242C21.2292 28.7743 20.6668 26.3259 20.8653 23.6789C20.9976 21.6937 21.6593 19.9731 22.8174 18.5503C23.7768 17.3261 25.6296 16.7305 26.887 16.6975C30.394 16.6313 31.8828 20.9988 31.9821 22.7525C32.4123 22.8517 33.1402 23.0834 33.6365 23.2488C33.2394 17.8887 29.9308 15.1094 26.7546 15.1094C23.7768 15.1094 21.0307 17.2601 19.9388 20.4364C18.4169 24.6716 19.4094 28.7413 21.2622 31.9508C21.0969 32.1823 20.9976 32.5462 21.0307 32.9102Z" fill="#764ABC"/>
</g>
<defs>
<clipPath id="clip0_279_80">
<rect width="26" height="26" fill="white" transform="translate(14 14.5)"/>
</clipPath>
</defs>
</svg>
