<svg width="54" height="54" viewBox="0 0 54 54" fill="none" xmlns="http://www.w3.org/2000/svg">
<rect width="54" height="54" rx="16" fill="white"/>
<g clip-path="url(#clip0_279_81)">
<path d="M42.0217 18.0464C41.2291 14.9257 38.8019 12.4985 35.6811 11.7059C29.8359 10.7647 23.8916 10.7647 18.0464 11.7059C14.9257 12.4985 12.4985 14.9257 11.7059 18.0464C10.7647 23.8916 10.7647 29.8359 11.7059 35.6811C12.4985 38.8019 14.9257 41.2291 18.0464 42.0217C23.8916 42.9628 29.8359 42.9628 35.6811 42.0217C38.8019 41.2291 41.2291 38.8019 42.0217 35.6811C42.9628 29.8359 42.9628 23.8916 42.0217 18.0464ZM26.517 28.0031C25.13 30.1827 23.2477 32.065 21.0186 33.452C20.2976 33.8792 19.4059 33.8989 18.6667 33.504C17.9275 33.1091 17.4482 32.3569 17.4025 31.5201C17.4025 30.678 17.8483 29.8855 18.5913 29.4892C19.7306 28.7957 20.7709 27.904 21.613 26.8638C20.7214 25.8235 19.7306 24.9814 18.5913 24.2384C18.0644 23.9376 17.6792 23.439 17.5211 22.8532C17.3631 22.2674 17.4452 21.6427 17.7492 21.1176C17.7492 21.1176 17.7492 21.0681 17.7988 21.0681C18.4923 19.9783 19.9288 19.582 21.0186 20.2755C23.2477 21.6625 25.0805 23.4954 26.517 25.6749C26.9628 26.3684 26.9628 27.3096 26.517 28.0031ZM34.3932 32.8081H28.7461C27.7059 32.8081 26.8638 32.3127 26.8638 31.322C26.8638 30.3313 27.7059 29.8359 28.7461 29.8359H34.3932C35.4334 29.8359 36.2755 30.3313 36.2755 31.322C36.2755 32.3127 35.4334 32.8081 34.3932 32.8081Z" fill="#206BC4"/>
</g>
<defs>
<clipPath id="clip0_279_81">
<rect width="32" height="32" fill="white" transform="translate(11 11)"/>
</clipPath>
</defs>
</svg>
