<svg width="54" height="55" viewBox="0 0 54 55" fill="none" xmlns="http://www.w3.org/2000/svg">
<rect y="0.5" width="54" height="54" rx="16" fill="white"/>
<g clip-path="url(#clip0_279_79)">
<path fill-rule="evenodd" clip-rule="evenodd" d="M14.9861 14.5H39.3094C39.854 14.5 40.2955 14.9365 40.2955 15.475V39.525C40.2955 40.0635 39.854 40.5 39.3094 40.5H14.9861C14.4415 40.5 14 40.0635 14 39.525V15.475C14 14.9365 14.4415 14.5 14.9861 14.5ZM28.6175 28.3324V26.2H19.2591V28.3324H22.6002V37.827H25.26V28.3324H28.6175ZM29.6779 37.5763C30.1068 37.7925 30.6141 37.9547 31.1997 38.0628C31.7854 38.1709 32.4026 38.225 33.0515 38.225C33.6839 38.225 34.2846 38.1655 34.8538 38.0466C35.4229 37.9277 35.9219 37.7317 36.3508 37.4587C36.7797 37.1857 37.1193 36.829 37.3695 36.3884C37.6197 35.9478 37.7448 35.4032 37.7448 34.7545C37.7448 34.2842 37.6733 33.8721 37.5303 33.518C37.3874 33.1639 37.1812 32.849 36.9117 32.5733C36.6423 32.2976 36.3192 32.0503 35.9425 31.8314C35.5658 31.6125 35.1411 31.4057 34.6682 31.2111C34.3217 31.0705 34.011 30.934 33.7361 30.8016C33.4611 30.6692 33.2274 30.534 33.035 30.3962C32.8425 30.2583 32.6941 30.1124 32.5896 29.9583C32.4851 29.8043 32.4329 29.6299 32.4329 29.4353C32.4329 29.2569 32.4796 29.0961 32.5731 28.9529C32.6666 28.8096 32.7985 28.6866 32.969 28.5839C33.1395 28.4812 33.3484 28.4015 33.5959 28.3447C33.8433 28.288 34.1183 28.2596 34.4207 28.2596C34.6407 28.2596 34.873 28.2758 35.1177 28.3082C35.3624 28.3407 35.6085 28.3907 35.8559 28.4582C36.1034 28.5258 36.344 28.6109 36.5777 28.7137C36.8114 28.8164 37.0272 28.9353 37.2252 29.0704V26.646C36.8237 26.4946 36.3852 26.3824 35.9095 26.3095C35.4339 26.2365 34.8881 26.2 34.2722 26.2C33.6454 26.2 33.0515 26.2662 32.4906 26.3987C31.9297 26.5311 31.4362 26.7379 31.01 27.019C30.5838 27.3001 30.247 27.6582 29.9996 28.0933C29.7521 28.5285 29.6284 29.0488 29.6284 29.6542C29.6284 30.4273 29.8552 31.0868 30.3089 31.6327C30.7626 32.1787 31.4513 32.6409 32.3751 33.0193C32.7381 33.1653 33.0762 33.3085 33.3897 33.4491C33.7031 33.5896 33.9739 33.7356 34.2021 33.8869C34.4303 34.0383 34.6104 34.2031 34.7424 34.3815C34.8744 34.5599 34.9404 34.7626 34.9404 34.9897C34.9404 35.1573 34.8991 35.3127 34.8166 35.4559C34.7341 35.5992 34.609 35.7235 34.4413 35.8289C34.2736 35.9343 34.0647 36.0168 33.8145 36.0762C33.5643 36.1357 33.2714 36.1654 32.936 36.1654C32.3641 36.1654 31.7977 36.0668 31.2368 35.8695C30.676 35.6722 30.1563 35.3762 29.6779 34.9816V37.5763Z" fill="#3178C6"/>
</g>
<defs>
<clipPath id="clip0_279_79">
<rect width="27" height="26" fill="white" transform="translate(14 14.5)"/>
</clipPath>
</defs>
</svg>
