<svg width="28" height="24" viewBox="0 0 28 24" fill="none" xmlns="http://www.w3.org/2000/svg">
<path d="M0.400984 19.5102L10.7582 1.51329C11.2974 0.5753 12.3005 0 13.3851 0C15.3788 0 16.8333 1.89474 16.3067 3.81449L13.5481 13.9323L14.4948 14.4888L17.2032 9.93017C17.7362 9.0297 18.7142 8.48567 19.7612 8.50443C21.4289 8.52944 22.7329 9.94893 22.6264 11.606L22.1938 18.2095V18.2282C22.6953 17.8968 23.2972 17.703 23.943 17.703C25.6859 17.703 27.1028 19.1162 27.1028 20.8546C27.1028 22.593 25.6859 24.0063 23.943 24.0063C22.2 24.0063 20.7831 22.593 20.7831 20.8546C20.7831 20.6063 20.7894 20.5982 20.8082 20.4732V20.4481C20.8207 20.3669 20.8333 20.2918 20.8458 20.2105L21.4728 16.3898L20.758 15.9145L16.8083 22.4992C16.2565 23.4184 15.2597 23.9875 14.1813 23.9875C12.2065 23.9875 10.7519 22.1553 11.1971 20.2418L13.5419 10.2178L12.8209 9.9802L5.59213 22.493C5.05922 23.4184 4.06864 23.9875 2.99656 23.9875C0.69565 23.9875 -0.746334 21.5049 0.400984 19.5102Z" fill="white"/>
</svg>
