<svg width="136" height="40" viewBox="0 0 136 40" fill="none" xmlns="http://www.w3.org/2000/svg">
<path d="M132.07 27.5448V22.0868C132.07 21.8229 132.056 21.4875 132.027 21.0809C131.999 20.6671 131.91 20.2532 131.76 19.8394C131.61 19.4256 131.364 19.0796 131.021 18.8013C130.686 18.5231 130.208 18.384 129.587 18.384C129.338 18.384 129.07 18.4232 128.785 18.5017C128.499 18.5802 128.232 18.7336 127.982 18.9619C127.732 19.1831 127.525 19.5112 127.361 19.9465C127.204 20.3817 127.126 20.9596 127.126 21.6802L125.456 20.8882C125.456 19.975 125.642 19.1188 126.013 18.3198C126.384 17.5207 126.94 16.875 127.682 16.3827C128.432 15.8904 129.373 15.6443 130.508 15.6443C131.414 15.6443 132.152 15.7977 132.723 16.1045C133.294 16.4112 133.736 16.8001 134.05 17.271C134.371 17.7419 134.599 18.2341 134.735 18.7478C134.871 19.2544 134.953 19.7182 134.981 20.1391C135.01 20.56 135.024 20.8668 135.024 21.0595V27.5448H132.07ZM124.172 27.5448V12.134H126.762V20.0535H127.126V27.5448H124.172Z" fill="white"/>
<path d="M117.433 27.866C115.977 27.866 114.8 27.5378 113.901 26.8814C113.009 26.2179 112.467 25.2833 112.274 24.0775L115.249 23.628C115.371 24.1703 115.638 24.5948 116.052 24.9016C116.473 25.2083 117.004 25.3617 117.647 25.3617C118.175 25.3617 118.581 25.2619 118.867 25.0621C119.152 24.8552 119.295 24.5698 119.295 24.2059C119.295 23.9776 119.238 23.7957 119.123 23.6601C119.009 23.5174 118.752 23.3783 118.353 23.2428C117.96 23.1072 117.347 22.9288 116.512 22.7077C115.57 22.4651 114.818 22.194 114.254 21.8943C113.69 21.5947 113.284 21.2379 113.034 20.8241C112.784 20.4032 112.659 19.8966 112.659 19.3044C112.659 18.5624 112.849 17.9203 113.227 17.3781C113.605 16.8287 114.136 16.4078 114.821 16.1153C115.513 15.8156 116.327 15.6658 117.261 15.6658C118.167 15.6658 118.97 15.8049 119.669 16.0831C120.368 16.3614 120.932 16.7574 121.36 17.2711C121.795 17.7848 122.063 18.3912 122.163 19.0904L119.188 19.6255C119.138 19.1974 118.952 18.8585 118.631 18.6088C118.31 18.3591 117.875 18.2128 117.325 18.17C116.79 18.1344 116.359 18.2057 116.031 18.3841C115.709 18.5624 115.549 18.8193 115.549 19.1546C115.549 19.3544 115.617 19.522 115.752 19.6576C115.895 19.7932 116.184 19.9323 116.619 20.075C117.062 20.2177 117.732 20.4032 118.631 20.6315C119.509 20.8598 120.211 21.1273 120.739 21.4341C121.275 21.7338 121.663 22.0976 121.906 22.5257C122.149 22.9467 122.27 23.4568 122.27 24.0561C122.27 25.2405 121.842 26.1715 120.986 26.8493C120.129 27.5271 118.945 27.866 117.433 27.866Z" fill="white"/>
<path d="M104.076 27.866C103.249 27.866 102.546 27.709 101.968 27.3951C101.397 27.0741 100.962 26.6495 100.662 26.1216C100.37 25.5865 100.224 24.9979 100.224 24.3558C100.224 23.8207 100.306 23.3319 100.47 22.8896C100.634 22.4472 100.898 22.0584 101.262 21.7231C101.633 21.3806 102.129 21.0952 102.749 20.8669C103.177 20.71 103.687 20.5708 104.28 20.4495C104.872 20.3283 105.543 20.2141 106.292 20.1071C107.041 19.9929 107.865 19.8681 108.764 19.7325L107.715 20.3104C107.715 19.6255 107.551 19.1225 107.223 18.8014C106.895 18.4804 106.345 18.3199 105.575 18.3199C105.147 18.3199 104.701 18.4233 104.237 18.6302C103.773 18.8371 103.448 19.2046 103.263 19.7325L100.63 18.8978C100.923 17.9417 101.472 17.164 102.278 16.5647C103.085 15.9654 104.183 15.6658 105.575 15.6658C106.595 15.6658 107.501 15.8227 108.293 16.1367C109.085 16.4506 109.684 16.9928 110.091 17.7634C110.319 18.1914 110.455 18.6195 110.498 19.0476C110.54 19.4757 110.562 19.9537 110.562 20.4816V27.5449H108.015V25.1691L108.379 25.6614C107.815 26.4391 107.205 27.0027 106.548 27.3523C105.899 27.6948 105.075 27.866 104.076 27.866ZM104.697 25.5758C105.232 25.5758 105.682 25.483 106.045 25.2975C106.416 25.1049 106.709 24.8873 106.923 24.6447C107.144 24.4021 107.294 24.1988 107.373 24.0347C107.522 23.7208 107.608 23.3569 107.629 22.9431C107.658 22.5222 107.672 22.1726 107.672 21.8943L108.528 22.1083C107.665 22.251 106.966 22.3723 106.431 22.4722C105.896 22.565 105.464 22.6506 105.136 22.7291C104.808 22.8075 104.519 22.8932 104.269 22.9859C103.984 23.1001 103.752 23.2249 103.573 23.3605C103.402 23.4889 103.274 23.6316 103.188 23.7886C103.11 23.9455 103.07 24.1203 103.07 24.3129C103.07 24.5769 103.135 24.8052 103.263 24.9979C103.399 25.1834 103.588 25.3261 103.83 25.426C104.073 25.5258 104.362 25.5758 104.697 25.5758Z" fill="white"/>
<path d="M86.0979 27.5448V12.134H91.085C91.2063 12.134 91.456 12.1376 91.8341 12.1447C92.2123 12.1519 92.5761 12.1768 92.9257 12.2196C94.1672 12.3695 95.2195 12.8011 96.0828 13.5146C96.9461 14.228 97.6025 15.1341 98.052 16.2329C98.5015 17.3316 98.7262 18.5338 98.7262 19.8394C98.7262 21.1451 98.5015 22.3473 98.052 23.446C97.6025 24.5447 96.9461 25.4508 96.0828 26.1643C95.2195 26.8778 94.1672 27.3094 92.9257 27.4592C92.5761 27.502 92.2123 27.527 91.8341 27.5341C91.456 27.5413 91.2063 27.5448 91.085 27.5448H86.0979ZM89.0516 24.8051H91.085C91.2776 24.8051 91.5381 24.8016 91.8663 24.7944C92.1944 24.7802 92.4905 24.7481 92.7545 24.6981C93.4252 24.5626 93.971 24.2486 94.3919 23.7564C94.82 23.2641 95.1339 22.6719 95.3337 21.9798C95.5406 21.2878 95.644 20.5743 95.644 19.8394C95.644 19.0689 95.537 18.3376 95.323 17.6455C95.1161 16.9535 94.7986 16.3684 94.3705 15.8904C93.9424 15.4124 93.4038 15.1092 92.7545 14.9808C92.4905 14.9237 92.1944 14.8916 91.8663 14.8844C91.5381 14.8773 91.2776 14.8737 91.085 14.8737H89.0516V24.8051Z" fill="white"/>
<path d="M83.1163 27.5448C82.3172 27.6946 81.5324 27.7589 80.7619 27.7375C79.9985 27.7232 79.3136 27.5912 78.7071 27.3415C78.1078 27.0846 77.6512 26.6744 77.3373 26.1108C77.0519 25.5828 76.902 25.0477 76.8878 24.5055C76.8735 23.9561 76.8664 23.3354 76.8664 22.6433V12.7761H79.7773V22.4721C79.7773 22.9216 79.7809 23.3282 79.788 23.6921C79.8023 24.0488 79.8772 24.3342 80.0127 24.5483C80.2696 24.9549 80.6798 25.1761 81.2435 25.2118C81.8071 25.2475 82.4314 25.2189 83.1163 25.1262V27.5448ZM74.8972 18.2341V15.9867H83.1163V18.2341H74.8972Z" fill="white"/>
<path d="M67.3415 27.866C66.5139 27.866 65.8111 27.709 65.2332 27.3951C64.6624 27.0741 64.2272 26.6495 63.9276 26.1216C63.635 25.5865 63.4888 24.9979 63.4888 24.3558C63.4888 23.8207 63.5708 23.3319 63.7349 22.8896C63.899 22.4472 64.163 22.0584 64.5269 21.7231C64.8979 21.3806 65.3937 21.0952 66.0144 20.8669C66.4425 20.71 66.9526 20.5708 67.5448 20.4495C68.137 20.3283 68.8076 20.2141 69.5568 20.1071C70.3059 19.9929 71.13 19.8681 72.0289 19.7325L70.9801 20.3104C70.9801 19.6255 70.816 19.1225 70.4878 18.8014C70.1597 18.4804 69.6103 18.3199 68.8397 18.3199C68.4117 18.3199 67.9658 18.4233 67.502 18.6302C67.0383 18.8371 66.7136 19.2046 66.5281 19.7325L63.8954 18.8978C64.188 17.9417 64.7373 17.164 65.5435 16.5647C66.3498 15.9654 67.4485 15.6658 68.8397 15.6658C69.86 15.6658 70.7661 15.8227 71.558 16.1367C72.35 16.4506 72.9493 16.9928 73.356 17.7634C73.5843 18.1914 73.7198 18.6195 73.7626 19.0476C73.8055 19.4757 73.8269 19.9537 73.8269 20.4816V27.5449H71.2798V25.1691L71.6437 25.6614C71.08 26.4391 70.47 27.0027 69.8136 27.3523C69.1644 27.6948 68.3403 27.866 67.3415 27.866ZM67.9622 25.5758C68.4973 25.5758 68.9468 25.483 69.3106 25.2975C69.6816 25.1049 69.9742 24.8873 70.1882 24.6447C70.4094 24.4021 70.5592 24.1988 70.6377 24.0347C70.7875 23.7208 70.8731 23.3569 70.8945 22.9431C70.9231 22.5222 70.9373 22.1726 70.9373 21.8943L71.7935 22.1083C70.9302 22.251 70.231 22.3723 69.6959 22.4722C69.1608 22.565 68.7292 22.6506 68.401 22.7291C68.0728 22.8075 67.7838 22.8932 67.5341 22.9859C67.2487 23.1001 67.0168 23.2249 66.8385 23.3605C66.6673 23.4889 66.5388 23.6316 66.4532 23.7886C66.3747 23.9455 66.3355 24.1203 66.3355 24.3129C66.3355 24.5769 66.3997 24.8052 66.5281 24.9979C66.6637 25.1834 66.8528 25.3261 67.0953 25.426C67.3379 25.5258 67.6269 25.5758 67.9622 25.5758Z" fill="white"/>
<path d="M46.144 27.5448V12.134H48.7553L53.8494 22.3651L58.9436 12.134H61.5549V27.5448H58.8366V18.3412L54.3631 27.5448H53.3358L48.8623 18.3412V27.5448H46.144Z" fill="white"/>
<g clip-path="url(#clip0_299_997)">
<path d="M0.517991 29.7006L13.8961 6.45466C14.5925 5.2431 15.8882 4.5 17.2892 4.5C19.8644 4.5 21.7431 6.94737 21.0629 9.42705L17.4997 22.4958L18.7225 23.2147L22.2209 17.3265C22.9092 16.1634 24.1726 15.4607 25.5249 15.4849C27.679 15.5172 29.3634 17.3507 29.2258 19.4911L28.667 28.0206V28.0448C29.3148 27.6167 30.0923 27.3663 30.9264 27.3663C33.1776 27.3663 35.0078 29.1918 35.0078 31.4372C35.0078 33.6826 33.1776 35.5081 30.9264 35.5081C28.6751 35.5081 26.8449 33.6826 26.8449 31.4372C26.8449 31.1165 26.853 31.106 26.8773 30.9445V30.9122C26.8935 30.8072 26.9097 30.7103 26.9259 30.6053L27.7357 25.6701L26.8125 25.0563L21.7107 33.5615C20.9981 34.7488 19.7105 35.4838 18.3176 35.4838C15.7667 35.4838 13.888 33.1172 14.4629 30.6456L17.4916 17.698L16.5603 17.3911L7.22322 33.5534C6.53488 34.7488 5.25538 35.4838 3.8706 35.4838C0.898601 35.4838 -0.963962 32.2772 0.517991 29.7006Z" fill="#635BFF"/>
</g>
<defs>
<clipPath id="clip0_299_997">
<rect width="35" height="31" fill="white" transform="matrix(-1 0 0 1 35 4.5)"/>
</clipPath>
</defs>
</svg>
