<svg width="21" height="20" viewBox="0 0 21 20" fill="none" xmlns="http://www.w3.org/2000/svg">
<path opacity="0.2" d="M18 10C18 11.4834 17.5601 12.9334 16.736 14.1668C15.9119 15.4001 14.7406 16.3614 13.3701 16.9291C11.9997 17.4968 10.4917 17.6453 9.03683 17.3559C7.58197 17.0665 6.2456 16.3522 5.1967 15.3033C4.14781 14.2544 3.4335 12.918 3.14411 11.4632C2.85472 10.0083 3.00325 8.50032 3.57091 7.12987C4.13856 5.75943 5.09986 4.58809 6.33323 3.76398C7.5666 2.93987 9.01664 2.5 10.5 2.5C12.4891 2.5 14.3968 3.29018 15.8033 4.6967C17.2098 6.10322 18 8.01088 18 10Z" fill="#63C8FF"/>
<path d="M14.0672 7.68281C14.1253 7.74086 14.1714 7.80979 14.2029 7.88566C14.2343 7.96154 14.2505 8.04287 14.2505 8.125C14.2505 8.20713 14.2343 8.28846 14.2029 8.36434C14.1714 8.44021 14.1253 8.50914 14.0672 8.56719L9.69219 12.9422C9.63415 13.0003 9.56522 13.0464 9.48934 13.0779C9.41347 13.1093 9.33214 13.1255 9.25 13.1255C9.16787 13.1255 9.08654 13.1093 9.01067 13.0779C8.93479 13.0464 8.86586 13.0003 8.80782 12.9422L6.93282 11.0672C6.81554 10.9499 6.74966 10.7909 6.74966 10.625C6.74966 10.4591 6.81554 10.3001 6.93282 10.1828C7.05009 10.0655 7.20915 9.99965 7.375 9.99965C7.54086 9.99965 7.69992 10.0655 7.81719 10.1828L9.25 11.6164L13.1828 7.68281C13.2409 7.6247 13.3098 7.5786 13.3857 7.54715C13.4615 7.5157 13.5429 7.49951 13.625 7.49951C13.7071 7.49951 13.7885 7.5157 13.8643 7.54715C13.9402 7.5786 14.0091 7.6247 14.0672 7.68281ZM18.625 10C18.625 11.607 18.1485 13.1779 17.2557 14.514C16.3629 15.8502 15.094 16.8916 13.6093 17.5065C12.1247 18.1215 10.491 18.2824 8.9149 17.9689C7.3388 17.6554 5.89106 16.8815 4.75476 15.7452C3.61846 14.6089 2.84463 13.1612 2.53112 11.5851C2.21762 10.009 2.37852 8.37535 2.99348 6.8907C3.60844 5.40605 4.64985 4.1371 5.986 3.24431C7.32214 2.35152 8.89303 1.875 10.5 1.875C12.6542 1.87727 14.7195 2.73403 16.2427 4.25727C17.766 5.78051 18.6227 7.84581 18.625 10ZM17.375 10C17.375 8.64025 16.9718 7.31104 16.2164 6.18045C15.4609 5.04987 14.3872 4.16868 13.131 3.64833C11.8747 3.12798 10.4924 2.99183 9.15876 3.2571C7.82514 3.52237 6.60013 4.17716 5.63864 5.13864C4.67716 6.10013 4.02238 7.32513 3.7571 8.65875C3.49183 9.99237 3.62798 11.3747 4.14833 12.6309C4.66868 13.8872 5.54987 14.9609 6.68046 15.7164C7.81105 16.4718 9.14026 16.875 10.5 16.875C12.3227 16.8729 14.0702 16.1479 15.3591 14.8591C16.6479 13.5702 17.3729 11.8227 17.375 10Z" fill="#63C8FF"/>
</svg>
