<svg width="20" height="22" viewBox="0 0 20 22" fill="none" xmlns="http://www.w3.org/2000/svg">
<g clip-path="url(#clip0_299_1037)">
<path d="M9.62959 6.05879C6.89678 6.05879 4.69248 8.26309 4.69248 10.9959C4.69248 13.7287 6.89678 15.933 9.62959 15.933C12.3624 15.933 14.5667 13.7287 14.5667 10.9959C14.5667 8.26309 12.3624 6.05879 9.62959 6.05879ZM9.62959 14.2057C7.86357 14.2057 6.41982 12.7662 6.41982 10.9959C6.41982 9.22559 7.85928 7.78613 9.62959 7.78613C11.3999 7.78613 12.8394 9.22559 12.8394 10.9959C12.8394 12.7662 11.3956 14.2057 9.62959 14.2057ZM15.9202 5.85684C15.9202 6.49707 15.4046 7.0084 14.7687 7.0084C14.1284 7.0084 13.6171 6.49277 13.6171 5.85684C13.6171 5.2209 14.1327 4.70527 14.7687 4.70527C15.4046 4.70527 15.9202 5.2209 15.9202 5.85684ZM19.1901 7.02559C19.1171 5.48301 18.7647 4.1166 17.6347 2.99082C16.5089 1.86504 15.1425 1.5127 13.5999 1.43535C12.0101 1.34512 7.24482 1.34512 5.65498 1.43535C4.1167 1.5084 2.75029 1.86074 1.62021 2.98652C0.490137 4.1123 0.14209 5.47871 0.0647461 7.02129C-0.0254883 8.61113 -0.0254883 13.3764 0.0647461 14.9662C0.137793 16.5088 0.490137 17.8752 1.62021 19.001C2.75029 20.1268 4.1124 20.4791 5.65498 20.5564C7.24482 20.6467 12.0101 20.6467 13.5999 20.5564C15.1425 20.4834 16.5089 20.1311 17.6347 19.001C18.7604 17.8752 19.1128 16.5088 19.1901 14.9662C19.2804 13.3764 19.2804 8.61543 19.1901 7.02559ZM17.1362 16.6721C16.8011 17.5143 16.1522 18.1631 15.3058 18.5025C14.0382 19.0053 11.0304 18.8893 9.62959 18.8893C8.22881 18.8893 5.2167 19.001 3.95342 18.5025C3.11123 18.1674 2.4624 17.5186 2.12295 16.6721C1.62021 15.4045 1.73623 12.3967 1.73623 10.9959C1.73623 9.59512 1.62451 6.58301 2.12295 5.31973C2.45811 4.47754 3.10693 3.82871 3.95342 3.48926C5.221 2.98652 8.22881 3.10254 9.62959 3.10254C11.0304 3.10254 14.0425 2.99082 15.3058 3.48926C16.148 3.82441 16.7968 4.47324 17.1362 5.31973C17.639 6.5873 17.5229 9.59512 17.5229 10.9959C17.5229 12.3967 17.639 15.4088 17.1362 16.6721Z" fill="white"/>
</g>
<defs>
<clipPath id="clip0_299_1037">
<rect width="19.25" height="22" fill="white"/>
</clipPath>
</defs>
</svg>
