<svg width="24" height="24" viewBox="0 0 24 24" fill="none" xmlns="http://www.w3.org/2000/svg">
<path d="M14.4061 20.5C13.6802 20.5 13.0625 20.2459 12.5529 19.7378C12.0433 19.2297 11.7885 18.6127 11.7885 17.8869C11.7885 17.161 12.0425 16.5433 12.5506 16.0337C13.0587 15.524 13.6757 15.2692 14.4016 15.2692C15.1274 15.2692 15.7452 15.5233 16.2548 16.0314C16.7644 16.5395 17.0192 17.1565 17.0192 17.8823C17.0192 18.6082 16.7651 19.2259 16.257 19.7355C15.7489 20.2451 15.1319 20.5 14.4061 20.5ZM14.4038 19C14.7128 19 14.9759 18.8913 15.1933 18.674C15.4106 18.4567 15.5192 18.1936 15.5192 17.8846C15.5192 17.5756 15.4106 17.3125 15.1933 17.0952C14.9759 16.8779 14.7128 16.7692 14.4038 16.7692C14.0948 16.7692 13.8317 16.8779 13.6144 17.0952C13.3971 17.3125 13.2884 17.5756 13.2884 17.8846C13.2884 18.1936 13.3971 18.4567 13.6144 18.674C13.8317 18.8913 14.0948 19 14.4038 19ZM16.5 13.5C15.1013 13.5 13.9183 13.0163 12.951 12.049C11.9837 11.0817 11.5 9.89868 11.5 8.49998C11.5 7.10128 11.9837 5.91827 12.951 4.95095C13.9183 3.98365 15.1013 3.5 16.5 3.5C17.8987 3.5 19.0817 3.98365 20.049 4.95095C21.0163 5.91827 21.5 7.10128 21.5 8.49998C21.5 9.89868 21.0163 11.0817 20.049 12.049C19.0817 13.0163 17.8987 13.5 16.5 13.5ZM16.5 12C17.4833 12 18.3125 11.6625 18.9875 10.9875C19.6625 10.3125 20 9.48331 20 8.49998C20 7.51664 19.6625 6.68748 18.9875 6.01248C18.3125 5.33748 17.4833 4.99998 16.5 4.99998C15.5166 4.99998 14.6875 5.33748 14.0125 6.01248C13.3375 6.68748 13 7.51664 13 8.49998C13 9.48331 13.3375 10.3125 14.0125 10.9875C14.6875 11.6625 15.5166 12 16.5 12ZM7.11538 17.6153C6.12114 17.6153 5.27002 17.2613 4.56202 16.5533C3.85401 15.8453 3.5 14.9942 3.5 14C3.5 13.0058 3.85401 12.1546 4.56202 11.4466C5.27002 10.7386 6.12114 10.3846 7.11538 10.3846C8.10959 10.3846 8.96071 10.7386 9.66873 11.4466C10.3767 12.1546 10.7307 13.0058 10.7307 14C10.7307 14.9942 10.3767 15.8453 9.66873 16.5533C8.96071 17.2613 8.10959 17.6153 7.11538 17.6153ZM7.1157 16.1154C7.69753 16.1154 8.1955 15.9082 8.6096 15.4939C9.0237 15.0795 9.23075 14.5815 9.23075 13.9996C9.23075 13.4178 9.02359 12.9199 8.60928 12.5058C8.19494 12.0916 7.69686 11.8846 7.11502 11.8846C6.53321 11.8846 6.03524 12.0917 5.62112 12.5061C5.20702 12.9204 4.99997 13.4185 4.99997 14.0003C4.99997 14.5821 5.20714 15.0801 5.62148 15.4942C6.03581 15.9083 6.53388 16.1154 7.1157 16.1154Z" fill="#FF6692"/>
</svg>
