<?xml version="1.0" encoding="utf-8"?>
<!-- Generator: Adobe Illustrator 25.2.0, SVG Export Plug-In . SVG Version: 6.00 Build 0)  -->
<svg version="1.1" id="Layer_1" xmlns="http://www.w3.org/2000/svg" xmlns:xlink="http://www.w3.org/1999/xlink" x="0px" y="0px"
	 viewBox="0 0 2500 2500" style="enable-background:new 0 0 2500 2500;" xml:space="preserve">
<style type="text/css">
	.st0{fill:#FF9900;}
	.st1{fill-rule:evenodd;clip-rule:evenodd;}
	.st2{fill:#FFFFFF;}
	.st3{fill-rule:evenodd;clip-rule:evenodd;fill:#FFFFFF;}
</style>
<rect class="st0" width="2500" height="2500"/>
<g>
	<path class="st0" d="M1794.1,1730.5c-613.7,292.1-994.6,47.7-1238.4-100.7c-15.1-9.4-40.7,2.2-18.5,27.7
		c81.2,98.5,347.4,335.9,694.9,335.9c347.7,0,554.5-189.7,580.4-222.8C1838.3,1737.8,1820.1,1719.7,1794.1,1730.5L1794.1,1730.5z
		 M1966.5,1635.4c-16.5-21.5-100.2-25.5-152.9-19c-52.8,6.3-132,38.5-125.1,57.9c3.5,7.3,10.7,4,47,0.7
		c36.4-3.6,138.2-16.5,159.4,11.3c21.3,27.9-32.5,161-42.3,182.5c-9.5,21.5,3.6,27,21.5,12.7c17.6-14.3,49.4-51.3,70.8-103.7
		C1966.1,1725.1,1979,1651.7,1966.5,1635.4L1966.5,1635.4z"/>
	<path class="st1" d="M1381.5,1134.6c0,76.6,1.9,140.5-36.8,208.6c-31.3,55.3-80.8,89.4-136.1,89.4c-75.5,0-119.5-57.5-119.5-142.5
		c0-167.7,150.2-198.1,292.4-198.1V1134.6z M1579.9,1614c-13,11.6-31.8,12.5-46.5,4.7c-65.3-54.2-76.9-79.4-112.9-131.1
		c-107.9,110.1-184.3,143-324.2,143c-165.4,0-294.4-102.1-294.4-306.5c0-159.6,86.6-268.4,209.7-321.5
		c106.8-47,255.9-55.3,369.9-68.3v-25.5c0-46.8,3.6-102.1-23.8-142.5c-24.1-36.2-70-51.2-110.4-51.2c-75,0-141.9,38.5-158.2,118.1
		c-3.3,17.7-16.3,35.1-34,36l-190.9-20.5c-16-3.6-33.7-16.6-29.3-41.2c44-231.3,252.9-301,439.9-301c95.7,0,220.8,25.5,296.3,97.9
		c95.7,89.4,86.6,208.6,86.6,338.4v306.5c0,92.1,38.2,132.5,74.1,182.3c12.7,17.7,15.5,39-0.6,52.3
		c-40.1,33.5-111.5,95.7-150.8,130.6L1579.9,1614"/>
	<path class="st2" d="M1794.1,1730.5c-613.7,292.1-994.6,47.7-1238.4-100.7c-15.1-9.4-40.7,2.2-18.5,27.7
		c81.2,98.5,347.4,335.9,694.9,335.9c347.7,0,554.5-189.7,580.4-222.8C1838.3,1737.8,1820.1,1719.7,1794.1,1730.5L1794.1,1730.5z
		 M1966.5,1635.4c-16.5-21.5-100.2-25.5-152.9-19c-52.8,6.3-132,38.5-125.1,57.9c3.5,7.3,10.7,4,47,0.7
		c36.4-3.6,138.2-16.5,159.4,11.3c21.3,27.9-32.5,161-42.3,182.5c-9.5,21.5,3.6,27,21.5,12.7c17.6-14.3,49.4-51.3,70.8-103.7
		C1966.1,1725.1,1979,1651.7,1966.5,1635.4L1966.5,1635.4z"/>
	<path class="st3" d="M1381.5,1134.6c0,76.6,1.9,140.5-36.8,208.6c-31.3,55.3-80.8,89.4-136.1,89.4c-75.5,0-119.5-57.5-119.5-142.5
		c0-167.7,150.2-198.1,292.4-198.1V1134.6z M1579.9,1614c-13,11.6-31.8,12.5-46.5,4.7c-65.3-54.2-76.9-79.4-112.9-131.1
		c-107.9,110.1-184.3,143-324.2,143c-165.4,0-294.4-102.1-294.4-306.5c0-159.6,86.6-268.4,209.7-321.5
		c106.8-47,255.9-55.3,369.9-68.3v-25.5c0-46.8,3.6-102.1-23.8-142.5c-24.1-36.2-70-51.2-110.4-51.2c-75,0-141.9,38.5-158.2,118.1
		c-3.3,17.7-16.3,35.1-34,36l-190.9-20.5c-16-3.6-33.7-16.6-29.3-41.2c44-231.3,252.9-301,439.9-301c95.7,0,220.8,25.5,296.3,97.9
		c95.7,89.4,86.6,208.6,86.6,338.4v306.5c0,92.1,38.2,132.5,74.1,182.3c12.7,17.7,15.5,39-0.6,52.3
		c-40.1,33.5-111.5,95.7-150.8,130.6L1579.9,1614"/>
</g>
</svg>
