<?xml version="1.0" encoding="utf-8"?>
<!-- Generator: Adobe Illustrator 25.2.0, SVG Export Plug-In . SVG Version: 6.00 Build 0)  -->
<svg version="1.1" id="Layer_1" xmlns="http://www.w3.org/2000/svg" xmlns:xlink="http://www.w3.org/1999/xlink" x="0px" y="0px"
	 viewBox="0 0 302 302" style="enable-background:new 0 0 302 302;" xml:space="preserve">
<style type="text/css">
	.st0{fill:#27346A;}
	.st1{fill:#2790C3;}
	.st2{fill:#1F264F;}
</style>
<g>
	<path class="st0" d="M240.2,23.5C226.2,7.6,201,0.8,168.8,0.8H75.3c-6.6,0-12.2,4.8-13.2,11.3l-38.9,247c-0.8,4.9,3,9.3,7.9,9.3
		h57.7l14.5-92l-0.4,2.9c1-6.5,6.6-11.3,13.2-11.3h27.4c53.9,0,96.1-21.9,108.4-85.2c0.4-1.9,0.7-3.7,1-5.5c-1.6-0.8-1.6-0.8,0,0
		C256.5,53.9,252.8,37.9,240.2,23.5"/>
	<path class="st0" d="M125.4,68.8c1.5-0.7,3.3-1.1,5.1-1.1h73.3c8.7,0,16.8,0.6,24.2,1.8c2.1,0.3,4.2,0.7,6.2,1.2
		c2,0.4,3.9,0.9,5.8,1.5c0.9,0.3,1.9,0.6,2.8,0.9c3.6,1.2,7,2.6,10.1,4.3c3.7-23.4,0-39.3-12.7-53.8C226.2,7.6,201,0.8,168.8,0.8
		H75.3c-6.6,0-12.2,4.8-13.2,11.3l-38.9,247c-0.8,4.9,3,9.3,7.9,9.3h57.7l30.1-190.8C119.5,73.7,122,70.5,125.4,68.8z"/>
	<path class="st1" d="M251.9,82.7c-12.3,63.3-54.5,85.2-108.4,85.2H116c-6.6,0-12.1,4.8-13.2,11.3l-18,114.4
		c-0.7,4.3,2.6,8.1,6.9,8.1h48.7c5.8,0,10.7-4.2,11.6-9.9l0.5-2.5l9.2-58.1l0.6-3.2c0.9-5.7,5.8-9.9,11.6-9.9h7.3
		c47.1,0,84.1-19.2,94.9-74.5c4.5-23.1,2.2-42.5-9.7-56.1c-3.6-4.1-8.1-7.5-13.3-10.3C252.6,79.1,252.3,80.9,251.9,82.7L251.9,82.7z
		"/>
	<path class="st2" d="M240,72.1c-1.9-0.5-3.8-1-5.8-1.5c-2-0.4-4.1-0.8-6.2-1.2c-7.4-1.2-15.5-1.8-24.2-1.8h-73.3
		c-1.8,0-3.5,0.4-5.1,1.1c-3.4,1.6-5.9,4.8-6.5,8.7l-15.6,98.8l-0.4,2.9c1-6.5,6.6-11.3,13.2-11.3h27.4c53.9,0,96.1-21.9,108.4-85.2
		c0.4-1.9,0.7-3.7,1-5.5c-3.1-1.6-6.5-3.1-10.1-4.3C241.8,72.7,240.9,72.4,240,72.1"/>
</g>
</svg>
